<?xml version="1.0" encoding="utf-8"?>
<!-- Generator: Adobe Illustrator 16.0.0, SVG Export Plug-In . SVG Version: 6.00 Build 0)  -->
<!DOCTYPE svg PUBLIC "-//W3C//DTD SVG 1.1//EN" "http://www.w3.org/Graphics/SVG/1.1/DTD/svg11.dtd">
<svg version="1.1" id="Layer_1" xmlns="http://www.w3.org/2000/svg" xmlns:xlink="http://www.w3.org/1999/xlink" x="0px" y="0px"
	  viewBox="0 0 1218 162" style="enable-background:new 0 0 1218 162;" xml:space="preserve">

<defs>
	<style type="text/css">
		
		.st0{stroke:#ffffff;stroke-width:2;stroke-linejoin:round;stroke-miterlimit:10;}

		.st0 {
			stroke-dasharray: 1000;
			stroke-dashoffset: 0;
			-webkit-animation: dash 2s linear forwards;
			-o-animation: dash 2s linear forwards;
			-moz-animation: dash 2s linear forwards;
			}
			@-webkit-keyframes dash {
				from {
				stroke-dashoffset: 800;
				fill: none;
				}
				to {
				stroke-dashoffset: 0;
				fill:#ffffff;
				}

			}


	

	</style>

</defs>



<g>
	<path class="st0" d="M15.487,92.203c0.125-0.503,0.408-0.724,0.851-0.661c0.44,0.065,0.851,0.032,1.229-0.095
		c-1.01-1.007-1.639-2.362-1.891-4.064c-0.254-1.703-0.883-3.12-1.89-4.254c0.251-0.629,0.473-1.258,0.662-1.89
		c0.189-0.629,0.724-0.881,1.606-0.755c-0.378-2.772-0.315-5.356,0.19-7.752c0.501-2.393,1.291-4.661,2.362-6.806
		c1.07-2.142,2.333-4.253,3.782-6.334c1.447-2.078,2.866-4.188,4.253-6.333c1.135-0.251,1.826-0.156,2.079,0.283
		c0.251,0.443,0.692,0.349,1.324-0.283c2.015-1.386,3.403-2.931,4.16-4.632c0.756-1.702,1.133-3.559,1.133-5.578
		c1.135-3.275,2.426-6.521,3.876-9.735c1.448-3.213,3.12-6.207,5.01-8.98c1.891-2.771,3.905-5.199,6.05-7.278
		c2.142-2.08,4.473-3.688,6.995-4.821c1.764-1.513,4.001-2.897,6.712-4.159c2.708-1.26,5.607-2.237,8.696-2.931
		c3.087-0.69,6.269-1.07,9.548-1.134c3.276-0.062,6.301,0.283,9.074,1.04c0.63,0.254,1.008,0.094,1.135-0.473
		c0.123-0.567,0.44-0.851,0.945-0.851c6.3,0.756,11.94,2.018,16.921,3.781c4.976,1.766,9.23,4.225,12.76,7.373
		c2.393,3.782,4.661,7.846,6.807,12.195c2.142,4.349,3.811,8.886,5.01,13.611c1.196,4.727,1.731,9.614,1.606,14.652
		c-0.126,5.043-1.199,10.085-3.214,15.125c-4.413,5.547-9.769,9.99-16.07,13.328c-6.304,3.341-13.078,6.115-20.323,8.318
		c-7.249,2.207-14.747,4.003-22.498,5.388c-7.752,1.389-15.283,2.902-22.592,4.538c0.125,3.402,0.125,7.027,0,10.871
		c-0.128,3.845-0.538,7.689-1.229,11.533c-0.694,3.846-1.702,7.593-3.024,11.248c-1.324,3.657-3.12,7.061-5.389,10.208
		c-2.522-0.127-5.136,0.125-7.846,0.757c-2.712,0.629-5.136,1.258-7.279,1.89c-1.009-0.632-1.985-1.228-2.93-1.796
		c-0.946-0.567-2.112-0.915-3.498-1.04c0.377-1.512,0.03-3.086-1.04-4.727c-1.073-1.636-2.145-3.244-3.214-4.82
		c-1.072-1.575-1.767-3.148-2.08-4.727c-0.316-1.575,0.408-2.992,2.174-4.253c-1.011-0.88-1.512-2.269-1.512-4.159
		c0.501,0.505,1.133,0.756,1.89,0.756c-0.254-2.269,0.029-4.978,0.851-8.129c0.818-3.15,1.512-6.27,2.08-9.359
		c0.567-3.086,0.661-5.922,0.284-8.507C19.647,95.198,18.134,93.337,15.487,92.203z M64.642,47.964
		c-0.505,1.387-0.916,2.616-1.229,3.686c-0.316,1.072-0.662,2.05-1.039,2.931c-0.378,0.882-0.789,1.766-1.229,2.646
		c-0.443,0.883-0.917,1.89-1.418,3.025c0.25,0.757,0.756,1.323,1.513,1.701c0.756,0.377,1.258,0.946,1.511,1.702
		c1.765-0.881,3.528-1.542,5.295-1.984c1.764-0.44,3.526-0.787,5.293-1.041c1.764-0.25,3.527-0.567,5.293-0.945
		c1.763-0.377,3.592-1.008,5.482-1.89c1.892-0.88,3.876-1.607,5.956-2.175c2.08-0.567,4.127-1.165,6.144-1.796
		c2.015-0.63,3.971-1.354,5.861-2.174c1.89-0.818,3.527-1.92,4.916-3.309c-1.768-1.637-4.413-3.086-7.94-4.348
		c-3.53-1.258-7.344-2.046-11.439-2.363c-4.096-0.313-8.193-0.03-12.288,0.851C71.227,43.364,67.667,45.192,64.642,47.964z"/>
	<path class="st0" d="M136.105,129.257c-0.632,0.126-1.198-0.345-1.702-1.417c-0.505-1.069-1.072-2.11-1.701-3.12h2.079
		c-0.883-2.771-1.104-5.323-0.662-7.657c0.44-2.331,0.976-4.6,1.608-6.806c0.629-2.204,1.165-4.349,1.607-6.428
		c0.439-2.079,0.218-4.253-0.662-6.522c0.629,0.378,1.101,0.222,1.417-0.473c0.314-0.69,0.568-1.573,0.756-2.646
		c0.189-1.07,0.251-2.205,0.189-3.403c-0.064-1.197-0.159-2.175-0.283-2.932c1.636-3.905,2.93-7.939,3.876-12.099
		c0.944-4.159,1.795-8.287,2.552-12.383c0.755-4.094,1.606-8.065,2.552-11.911c0.945-3.843,2.175-7.468,3.687-10.87
		c1.763-0.251,3.622-0.03,5.577,0.661c1.953,0.695,3.244,1.545,3.876,2.553c3.904-3.025,7.373-6.68,10.398-10.966
		c3.025-4.284,6.079-8.475,9.168-12.572c3.088-4.095,6.584-7.719,10.493-10.871c3.905-3.15,8.758-5.04,14.557-5.672
		c3.025,2.144,6.429,4.442,10.21,6.9c3.78,2.457,6.869,5.515,9.263,9.169c1.007,0.632,1.985,1.293,2.931,1.985
		c0.944,0.694,1.919,1.355,2.929,1.985V26.6c1.765,1.641,3.244,3.563,4.443,5.767c1.197,2.207,2.27,4.537,3.214,6.996
		c0.945,2.456,1.859,4.948,2.741,7.467c0.881,2.522,1.892,4.854,3.025,6.995c-0.252,0.757-0.348,1.418-0.283,1.985
		c0.063,0.567,0.189,1.135,0.377,1.703c0.189,0.566,0.346,1.198,0.473,1.89c0.125,0.694,0.19,1.545,0.19,2.552
		c-0.505,6.682-2.68,12.07-6.523,16.165c-3.846,4.098-8.507,7.438-13.99,10.02c-5.483,2.585-11.313,4.792-17.488,6.617
		c-6.177,1.83-11.787,3.814-16.826,5.956c0,0.504,0.282,0.756,0.85,0.756c0.567,0,0.724,0.379,0.473,1.135
		c3.781,2.268,6.711,4.096,8.791,5.482c2.08,1.388,4.032,2.552,5.861,3.498c1.826,0.945,3.843,1.734,6.049,2.363
		c2.205,0.632,5.262,1.388,9.17,2.268c3.905,0.884,6.962,1.607,9.168,2.174c2.204,0.567,4.189,1.01,5.956,1.324
		c1.764,0.316,3.655,0.6,5.671,0.851c2.015,0.253,4.726,0.566,8.129,0.945c1.386,1.389,2.52,3.025,3.403,4.916
		c0.881,1.891,1.512,3.781,1.89,5.672c0.379,1.891,0.474,3.687,0.285,5.388c-0.19,1.702-0.727,3.056-1.607,4.064
		c0.124,0.504,0.472,0.727,1.04,0.663c0.567-0.063,1.163-0.03,1.796,0.093c-0.883,0.633-1.64,1.389-2.269,2.27
		c-0.632,0.883-1.261,1.764-1.89,2.646c-0.632,0.881-1.356,1.702-2.175,2.458c-0.82,0.756-1.86,1.196-3.12,1.324
		c-4.537,1.764-10.336,1.825-17.392,0.189c-7.061-1.64-16.07-4.537-27.036-8.696c-5.42-2.015-9.831-3.845-13.233-5.483
		c-3.403-1.637-6.367-3.244-8.886-4.822c-2.522-1.573-4.853-3.275-6.995-5.104c-2.145-1.825-4.603-3.999-7.374-6.521
		c-0.378,0.126-0.599,0.377-0.662,0.756c-0.064,0.377-0.283,0.631-0.662,0.756c-0.632,5.042-1.606,9.139-2.93,12.288
		c-1.324,3.152-3.247,6.366-5.767,9.642c-2.017-0.378-3.373-0.188-4.064,0.567c-0.695,0.756-1.545,1.447-2.552,2.08
		c-1.262,0.251-2.208,0.218-2.836-0.095c-0.632-0.316-1.199-0.662-1.701-1.04c-0.505-0.377-1.073-0.756-1.701-1.133
		c-0.632-0.379-1.64-0.503-3.025-0.379c-0.378-1.134-0.756-2.235-1.135-3.308c-0.378-1.069-1.389-1.542-3.025-1.418
		c0.378-1.133,0.502-2.109,0.378-2.93c-0.126-0.818-0.317-1.575-0.567-2.269c-0.252-0.691-0.472-1.417-0.662-2.174
		C135.633,131.149,135.727,130.268,136.105,129.257z M199.25,42.858c-1.639,2.396-3.467,4.57-5.482,6.523
		c-2.018,1.955-4.003,3.969-5.955,6.05c-1.956,2.08-3.687,4.348-5.199,6.806c-1.513,2.458-2.585,5.388-3.215,8.791
		c5.294-0.628,10.839-2.109,16.637-4.442c5.796-2.332,11.28-4.567,16.449-6.712c-0.632-4.662-2.27-8.413-4.915-11.249
		C204.922,45.79,202.148,43.869,199.25,42.858z"/>
	<path class="st0" d="M251.052,127.556l2.457-1.89l0.189-3.971c3.15-7.687,6.396-15.059,9.737-22.119
		c3.337-7.057,6.835-14.304,10.493-21.742c1.135-2.393,2.298-4.789,3.498-7.183c1.197-2.394,2.363-4.852,3.498-7.375
		c-0.127-0.502-0.189-1.04-0.189-1.606c0-0.568,0.125-1.23,0.378-1.986c1.764-2.52,3.182-4.788,4.255-6.805
		c1.069-2.016,2.108-4.095,3.118-6.24c1.134-2.521,2.363-5.04,3.687-7.562c1.324-2.52,2.993-4.978,5.011-7.374l1.323-1.89
		l2.079,0.189c0.503-0.251,1.042-0.472,1.607-0.662c0.567-0.189,1.292-0.283,2.175-0.283l3.403,0.566
		c4.159-1.89,7.845-4.631,11.059-8.225c3.214-3.591,6.458-7.907,9.737-12.949l2.268-3.214l3.026,1.89
		c0.628,0.378,1.637,0.758,3.024,1.135c1.386,0.378,2.836,0.821,4.349,1.324c2.646,0.632,5.228,1.355,7.751,2.174
		c2.52,0.821,4.472,1.922,5.861,3.308l0.945,1.701c0.251,1.389,0.472,2.647,0.662,3.782c0.188,1.133,0.407,2.268,0.661,3.402
		c0.502,2.646,0.944,5.264,1.323,7.846c0.378,2.585,0.629,5.453,0.757,8.603c0.629,2.522,1.229,5.075,1.796,7.657
		c0.566,2.584,1.102,5.136,1.606,7.656c0.628,3.657,1.324,7.155,2.08,10.493c0.756,3.342,1.763,6.523,3.024,9.548
		c1.258,0,2.015,0.064,2.269,0.189c1.511-0.629,3.277-1.007,5.292-1.134l2.459-0.189l0.756,2.27c0.25,0.378,0.567,0.756,0.946,1.133
		c0.377,0.379,0.816,0.757,1.323,1.136c2.014,0.126,3.496,0.537,4.442,1.229c0.946,0.694,1.73,1.356,2.363,1.985
		c0.251,0.254,0.566,0.537,0.946,0.85c0.377,0.316,0.691,0.537,0.944,0.663l3.402,1.323l-1.889,3.592
		c-1.389,2.647-3.499,5.231-6.335,7.752c-2.834,2.522-6.019,4.602-9.547,6.238c0.252,0.883,0.41,1.702,0.472,2.458
		c0.064,0.757,0.219,1.64,0.475,2.647c0.502,2.522,0.913,5.137,1.227,7.845c0.315,2.712,0.284,5.516-0.094,8.414
		c-1.26,3.279-2.741,6.209-4.442,8.792c-1.702,2.584-3.719,4.915-6.05,6.995c-2.333,2.081-4.948,3.781-7.846,5.104
		c-2.901,1.324-5.926,2.048-9.075,2.174c-1.766-0.377-3.057-0.82-3.875-1.323c-0.82-0.501-1.545-1.007-2.174-1.511
		c-1.01-0.757-1.829-1.259-2.458-1.513l-2.458-1.134l0.757-2.836c0.377-1.007,0.345-1.89-0.095-2.646
		c-0.443-0.756-1.354-1.763-2.741-3.025c-0.505-0.378-0.946-0.786-1.323-1.23c-0.377-0.439-0.821-0.912-1.324-1.417l-3.781-4.348
		l6.239-1.702c3.781-1.007,6.3-2.298,7.561-3.876c1.26-1.573,1.764-4.377,1.513-8.412c-3.151-0.63-5.736-0.723-7.75-0.284
		c-2.018,0.443-4.036,0.915-6.051,1.418c-2.9,0.757-5.737,1.418-8.507,1.985c-2.774,0.566-5.799,0.85-9.075,0.85
		c-2.146,0-4.414-0.188-6.807-0.566l-2.08-0.188l-0.567-2.081c0-0.251-0.159-0.534-0.473-0.851
		c-0.315-0.313-0.599-0.597-0.851-0.851c-0.631-0.756-1.388-1.764-2.268-3.025c-0.883-1.258-1.072-2.835-0.568-4.727
		c-0.882-1.385-1.388-2.835-1.512-4.348c-0.505,1.01-0.915,1.985-1.229,2.93c-0.315,0.946-0.599,1.861-0.851,2.742l-0.755,2.458
		l-2.458,0.378c-0.254,0.254-0.473,0.632-0.663,1.135c-0.188,0.504-0.221,0.882-0.093,1.134l0.756,2.08l-1.891,1.702
		c-0.254,0.377-0.567,0.693-0.945,0.944c-0.378,0.254-0.693,0.505-0.944,0.756c-0.254,1.387-0.6,2.711-1.04,3.969
		c-0.443,1.262-0.916,2.523-1.418,3.782c-0.633,2.018-1.229,3.97-1.796,5.861c-0.568,1.891-0.851,3.781-0.851,5.671l-0.756,2.458
		c-0.632,1.01-1.417,1.767-2.364,2.269c-0.944,0.504-1.86,0.945-2.74,1.324c-1.262,0.504-2.146,1.009-2.647,1.512l-0.567,2.458
		l-2.836,0.377c-1.638,0.378-2.806,0.63-3.497,0.756c-0.694,0.125-1.482,0.189-2.363,0.189l-2.458-0.189
		c-1.513-1.512-2.741-2.676-3.687-3.498c-0.945-0.818-2.05-1.542-3.309-2.174l-1.135-1.512c-0.505-1.007-0.818-1.92-0.946-2.741
		c-0.124-0.818-0.312-1.669-0.566-2.553c-0.251-1.637-0.629-2.771-1.135-3.402L251.052,127.556z M311.36,78.401
		c-1.766,2.523-3.468,5.169-5.104,7.94c0.88-0.125,1.731-0.189,2.552-0.189c0.818,0,1.669-0.061,2.553-0.189
		c4.411-0.251,8.508-0.566,12.288-0.944c3.782-0.379,7.876-1.008,12.289-1.892c-1.01-4.661-2.112-9.42-3.308-14.272
		c-1.2-4.851-2.49-9.738-3.876-14.653l-0.946,1.892c-3.151,3.403-6.177,7.06-9.074,10.964c-2.901,3.909-5.293,7.628-7.184,11.155
		L311.36,78.401z"/>
	<path class="st0" d="M401.729,151.944c-4.917-3.657-8.539-8.159-10.87-13.518c-2.333-5.355-2.614-10.681-0.851-15.975
		c0.252-3.906,1.229-7.656,2.931-11.249c1.701-3.593,3.78-7.025,6.238-10.305c2.457-3.275,5.134-6.362,8.035-9.262
		c2.898-2.898,5.608-5.608,8.13-8.13c0.503-1.512,1.384-2.835,2.647-3.971c1.258-1.134,2.614-2.235,4.065-3.308
		c1.446-1.069,2.898-2.236,4.348-3.498c1.446-1.258,2.615-2.709,3.497-4.349c-0.504-1.764-1.324-3.527-2.457-5.293
		c-1.136-1.764-2.396-3.527-3.781-5.293c-1.389-1.764-2.837-3.528-4.349-5.294c-1.513-1.763-2.9-3.591-4.161-5.483
		c-0.126-0.628-0.598-0.818-1.417-0.566c-0.821,0.253-1.417,0.189-1.795-0.189c0.251-2.014-0.16-4.189-1.23-6.522
		c-1.071-2.331-2.489-4.315-4.252-5.956c0.629-1.512,1.228-3.465,1.795-5.86c0.567-2.393,0.409-4.978-0.472-7.752
		c-0.129-1.258,0.028-2.457,0.472-3.592c0.439-1.134,0.913-2.204,1.417-3.214c0.502-1.007,0.88-1.985,1.136-2.93
		c0.249-0.946,0.188-1.92-0.19-2.931c1.891-0.251,3.622-0.156,5.199,0.284c1.575,0.443,3.024,0.945,4.348,1.513
		c1.324,0.566,2.582,1.039,3.781,1.417c1.197,0.379,2.363,0.316,3.499-0.188c-0.255,0.756-0.284,1.294-0.096,1.607
		c0.189,0.316,0.441,0.567,0.757,0.756c0.313,0.188,0.629,0.349,0.944,0.473c0.315,0.127,0.474,0.444,0.474,0.946
		c2.392,0.756,5.011,2.395,7.845,4.916c2.836,2.522,5.579,5.293,8.224,8.319c2.647,3.024,5.041,6.019,7.187,8.979
		c2.14,2.962,3.714,5.263,4.727,6.9c3.653-2.269,7.59-4.978,11.813-8.129c4.222-3.149,8.571-6.364,13.045-9.642
		c4.473-3.276,9.011-6.396,13.612-9.358c4.599-2.96,9.106-5.324,13.517-7.09c2.521,1.135,4.507,2.585,5.956,4.35
		c1.449,1.766,2.648,3.624,3.591,5.577c0.947,1.955,1.826,3.908,2.647,5.861c0.819,1.955,1.92,3.687,3.309,5.199
		c-1.26,2.523-2.583,4.632-3.971,6.334c-1.387,1.701-2.396,3.75-3.026,6.144c-3.15,1.262-6.931,3.279-11.341,6.051
		c-3.781,2.396-8.573,5.671-14.37,9.83c-5.799,4.16-12.665,9.642-20.607,16.448c1.891,2.144,3.434,4.16,4.633,6.049
		c1.197,1.891,2.175,3.531,2.931,4.916c0.88,1.64,1.575,3.152,2.078,4.538c1.386,1.01,2.521,2.207,3.403,3.591
		c0.881,1.389,1.732,2.806,2.554,4.253c0.817,1.451,1.73,2.807,2.74,4.065c1.008,1.261,2.331,2.27,3.969,3.025
		c0.503,2.27,1.136,4.381,1.891,6.334c0.756,1.956,1.482,3.876,2.174,5.766c0.692,1.891,1.259,3.751,1.702,5.577
		c0.44,1.829,0.598,3.688,0.473,5.578c-1.011,3.403-2.522,6.238-4.54,8.507c-2.015,2.268-3.465,4.604-4.345,6.995
		c-1.39,0.378-2.743,0.789-4.065,1.229c-1.323,0.441-2.429,1.102-3.309,1.985l-12.856-9.075c-2.269-7.563-5.546-14.808-9.832-21.742
		c-4.287-6.93-8.445-12.918-12.477-17.96c-6.05,4.664-11.849,9.831-17.395,15.504c-5.547,5.67-10.587,11.72-15.123,18.148
		c-0.255,3.152-0.633,5.767-1.136,7.846c-0.504,2.081-1.323,3.814-2.457,5.2c-1.134,1.386-2.584,2.582-4.349,3.591
		C406.579,149.927,404.376,150.934,401.729,151.944z"/>
	<path class="st0" d="M513.839,147.786c-1.767-1.134-3.184-2.582-4.252-4.349c-1.071-1.764-1.953-3.654-2.647-5.672
		c-0.692-2.014-1.259-4.126-1.702-6.333c-0.442-2.203-0.914-4.316-1.42-6.333c0-1.764,0.38-3.054,1.136-3.875
		c0.756-0.819,1.576-1.608,2.457-2.363c3.025-0.124,5.734-0.379,8.13-0.757c2.394-0.377,4.728-0.755,6.996-1.133
		c2.269-0.379,4.536-0.725,6.806-1.042c2.269-0.312,4.726-0.47,7.374-0.47c1.89-3.907,3.654-7.659,5.292-11.25
		c1.639-3.592,3.215-7.025,4.727-10.304c0.758-3.149,1.733-6.08,2.931-8.791c1.198-2.709,2.363-5.294,3.497-7.751
		c1.136-2.458,2.142-4.916,3.026-7.374c0.88-2.458,1.447-5.072,1.701-7.846c1.512-4.409,2.866-8.475,4.064-12.194
		c1.197-3.716,2.109-8.159,2.741-13.329c-4.791,0.756-8.634,1.482-11.533,2.174c-2.9,0.694-4.979,1.356-6.238,1.985
		c-2.523-0.124-4.507-0.629-5.956-1.512c-1.45-0.881-2.616-1.953-3.497-3.215c-0.882-1.258-1.641-2.708-2.27-4.348
		c-0.631-1.636-1.386-3.338-2.268-5.104c0.5-1.133,0.63-2.803,0.379-5.009c-0.256-2.205-1.012-3.812-2.27-4.822
		c1.006-0.251,1.762-1.102,2.27-2.552c0.502-1.447,0.565-2.553,0.187-3.309c2.142-0.629,4.409-1.04,6.807-1.229
		c2.393-0.189,4.757-0.377,7.089-0.567c2.33-0.188,4.566-0.44,6.712-0.756c2.142-0.313,3.971-0.975,5.481-1.985
		c6.552-0.251,13.392-0.502,20.514-0.756c7.118-0.251,13.705-0.566,19.756-0.945c2.269,0.756,4.884,1.134,7.847,1.134
		c2.96,0,5.922,0.189,8.886,0.567c2.959,0.378,5.606,1.199,7.939,2.458c2.33,1.26,3.937,3.467,4.822,6.617
		c1.89,0.254,3.306,0.756,4.253,1.512c0.945,0.757,1.543,1.672,1.795,2.741c0.251,1.073,0.347,2.269,0.282,3.593
		c-0.064,1.323-0.092,2.616-0.092,3.875c-2.019,1.513-4.569,2.741-7.659,3.686c-3.088,0.945-6.461,1.701-10.114,2.269
		c-3.656,0.567-7.468,0.945-11.436,1.134c-3.971,0.19-7.849,0.349-11.628,0.473c-0.632,4.16-1.733,9.046-3.31,14.652
		c-1.577,5.609-3.184,11.092-4.821,16.447c-1.638,5.359-3.057,10.148-4.251,14.37c-1.2,4.223-1.734,6.965-1.608,8.223
		c-1.262,2.901-2.302,5.359-3.119,7.373c-0.82,2.019-1.578,3.908-2.27,5.672c-0.694,1.768-1.389,3.498-2.079,5.2
		c-0.694,1.701-1.546,3.624-2.553,5.766H583.6c0.252,1.388,0.82,2.333,1.703,2.835c0.879,0.505,1.826,0.945,2.836,1.324
		c1.007,0.379,1.921,0.851,2.741,1.418c0.817,0.567,1.229,1.482,1.229,2.741c2.394,0.631,3.905,1.577,4.538,2.835
		c0.629,1.262,0.787,2.617,0.473,4.065c-0.316,1.451-0.945,2.93-1.891,4.443c-0.945,1.512-1.859,2.835-2.742,3.97
		c-1.134-0.251-2.206,0.033-3.213,0.851c-1.011,0.821-1.955,1.733-2.836,2.742c-3.658-0.503-7.249-0.568-10.775-0.19
		c-3.53,0.379-6.807,0.695-9.832,0.946c-0.632,0.126-0.884,0.473-0.755,1.04c0.123,0.568,0,0.978-0.38,1.229
		c-3.907-1.259-7.911-1.764-12.005-1.512c-4.097,0.253-8.256,0.851-12.478,1.796c-4.224,0.945-8.54,1.955-12.95,3.024
		C522.849,147.059,518.376,147.658,513.839,147.786z"/>
	<path class="st0" d="M614.607,38.89c-0.128-1.007-0.35-1.921-0.663-2.742c-0.315-0.819-0.661-1.731-1.038-2.741
		c-0.634-1.512-1.2-3.15-1.701-4.916c-0.505-1.763-0.756-3.843-0.756-6.238c0.251-1.259,0.565-2.174,0.942-2.743
		c0.379-0.566,0.758-1.04,1.135-1.417l0.757-3.403h2.834c1.01,0.127,2.05,0.188,3.123,0.188c1.066,0,2.107,0,3.118,0
		c4.789,0,9.703-0.188,14.746-0.566c5.041-0.378,10.209-0.818,15.502-1.323c5.798-0.756,12.035-1.324,18.718-1.702
		c0.629-1.386,1.041-2.269,1.228-2.647c0.19-0.378,0.409-0.818,0.663-1.323l2.078-1.134c2.898-0.125,4.917,0.221,6.05,1.04
		c1.137,0.821,2.018,1.607,2.647,2.363c3.276-0.251,6.617-0.598,10.021-1.041c3.402-0.439,6.931-0.912,10.587-1.418
		c5.038-0.629,10.145-1.258,15.314-1.89c5.166-0.629,10.207-0.946,15.123-0.946c2.143,0,4.16,0.065,6.052,0.189
		c1.889,0.127,3.714,0.316,5.481,0.568l2.27,1.701c0.503,0.884,1.133,1.701,1.889,2.457c0.759,0.757,1.637,1.513,2.647,2.27
		c1.891,1.512,3.747,3.402,5.578,5.671c1.824,2.269,2.486,5.609,1.984,10.02l-0.945,1.891c-0.505,0.504-1.136,1.01-1.892,1.513
		l-1.889,2.457h-2.082c-1.26,0-2.205,0.095-2.834,0.284c-0.633,0.188-1.389,0.473-2.27,0.851c-0.504,0.254-1.072,0.473-1.701,0.661
		c-0.631,0.19-1.324,0.411-2.079,0.662c-1.39-0.125-2.457-0.189-3.214-0.189c-0.758,0-1.639,0-2.647,0
		c-3.78,0-7.877,0.253-12.289,0.755c-4.413,0.506-8.694,1.073-12.855,1.702c-3.026,0.377-5.927,0.727-8.695,1.04
		c-2.775,0.317-5.294,0.599-7.564,0.851c-1.26,3.279-2.396,6.177-3.401,8.697c-1.01,2.523-2.08,5.042-3.214,7.563
		c-1.136,2.523-2.207,5.075-3.216,7.657c-1.009,2.585-1.954,5.453-2.834,8.603c-1.515,2.268-2.774,4.442-3.78,6.522
		c-1.011,2.079-1.83,4.442-2.459,7.089c-1.893,2.145-3.247,4.476-4.067,6.995c-0.819,2.523-1.543,4.665-2.171,6.428l-0.757,2.836
		c-0.885,0.883-1.417,1.578-1.607,2.079c-0.188,0.505-0.538,1.072-1.04,1.703c-0.378,1.639-0.882,3.214-1.512,4.726
		c-0.254,0.631-0.506,1.293-0.756,1.985c-0.255,0.694-0.316,1.229-0.189,1.608c-0.255,1.387-0.634,2.457-1.137,3.213
		c0,0.755-0.061,1.512-0.187,2.268c-0.126,0.757-0.256,1.512-0.378,2.27c-0.255,0.883-0.442,1.672-0.568,2.363
		c-0.126,0.694-0.064,1.356,0.189,1.985c0.379,0.505,0.757,1.01,1.135,1.512c0.377,0.506,0.69,1.134,0.945,1.89
		c0.252,0.254,0.565,0.444,0.945,0.567c0.379,0.127,0.691,0.316,0.943,0.567c1.009,0.883,1.953,1.388,2.838,1.512l1.89,2.269
		c0.757,4.538,0.063,8.068-2.08,10.588c-2.268,2.898-6.05,4.348-11.342,4.348l-2.647-0.189c-0.883-0.884-1.388-1.451-1.514-1.702
		c-1.132-0.505-2.078-0.915-2.834-1.229c-0.757-0.316-1.451-0.913-2.079-1.796c-0.255-0.25-0.567-0.408-0.945-0.472
		c-0.38-0.063-0.696-0.22-0.948-0.474c-1.258-0.378-2.267-0.817-3.024-1.324l-2.078-1.133c0.124-1.259,0.189-2.142,0.189-2.647
		c-1.011-1.386-1.798-2.899-2.362-4.537c-0.567-1.637-1.04-3.338-1.421-5.105c-0.377-1.385-0.725-2.646-1.038-3.781
		c-0.315-1.135-0.789-2.143-1.418-3.024c-0.253-8.821,0.567-16.228,2.456-22.214c1.893-5.986,3.971-11.817,6.24-17.488
		c1.259-3.025,2.456-6.112,3.593-9.265c1.134-3.148,2.143-6.362,3.023-9.642l2.081-2.079c0.881-0.757,1.446-1.197,1.701-1.324
		c0-1.636,0.314-3.244,0.944-4.821c0.632-1.575,1.324-3.182,2.081-4.821c0.501-1.007,0.974-2.015,1.418-3.025
		c0.439-1.007,0.724-1.891,0.85-2.646c-0.883,0-1.672,0.032-2.364,0.093c-0.694,0.065-1.417,0.16-2.172,0.285
		c-1.641,0.378-3.215,0.566-4.727,0.566c-1.134,0-1.955-0.062-2.458-0.188c-1.011,0.505-1.957,0.788-2.836,0.851
		c-0.883,0.064-1.769,0.094-2.648,0.094h-2.267h-2.269c-1.512,0-2.713,0.189-3.593,0.566c-1.767,0-2.901,0-3.403,0
		c-0.504,0-1.072,0-1.701,0h-2.269h-2.27c-1.012,0-2.144-0.094-3.402-0.283c-1.262-0.189-2.587-0.662-3.971-1.418l-1.324-1.512
		c-0.754-1.386-1.449-2.142-2.079-2.269l-2.078-0.568V38.89z"/>
	<path class="st0" d="M738.629,139.088c-1.011-1.007-1.733-2.205-2.175-3.591c-0.444-1.386-1.483-2.52-3.12-3.403
		c-0.253-1.891-0.601-4.065-1.039-6.523c-0.442-2.458-0.884-4.978-1.324-7.562c-0.443-2.582-0.756-5.167-0.944-7.751
		c-0.188-2.583-0.096-4.945,0.284-7.09c0.25-1.134,0.66-2.204,1.228-3.214c0.566-1.007,1.135-1.985,1.702-2.93
		c0.566-0.946,1.008-1.921,1.322-2.931c0.315-1.007,0.346-2.014,0.096-3.025c0.755-0.124,1.228-0.534,1.417-1.229
		c0.19-0.691,0.786-0.913,1.796-0.661c0.879-2.771,1.824-5.355,2.839-7.751c1.004-2.394,2.078-4.727,3.211-6.995
		c1.135-2.268,2.298-4.567,3.497-6.9c1.198-2.331,2.3-4.945,3.309-7.846c-2.145-2.015-3.687-4.189-4.631-6.523
		c-0.945-2.33-1.672-4.693-2.175-7.089c-0.504-2.393-0.881-4.821-1.133-7.279c-0.255-2.457-0.757-4.945-1.515-7.468
		c1.515-2.268,3.339-4.126,5.484-5.577c2.141-1.447,4.506-2.646,7.089-3.592c2.582-0.945,5.389-1.701,8.413-2.268
		c3.025-0.568,6.239-1.229,9.642-1.985c6.051-1.892,11.468-3.371,16.26-4.443c4.787-1.07,9.452-1.952,13.99-2.647
		c4.537-0.691,9.265-1.323,14.178-1.89c4.917-0.567,10.587-1.418,17.016-2.553c0.124,0.378,0.346,0.567,0.661,0.567s0.725,0,1.229,0
		c0.378,0.884,1.07,1.324,2.079,1.324c0-0.377-0.032-0.724-0.093-1.04c-0.065-0.313-0.095-0.598-0.095-0.851
		c0.251,0,0.597,0.064,1.039,0.19c0.44,0.126,0.817,0.252,1.135,0.377c0.313,0.127,0.597,0.096,0.852-0.095
		c0.248-0.189,0.313-0.597,0.188-1.229c1.514,2.647,3.466,4.821,5.862,6.522c2.391,1.702,5.04,3.185,7.939,4.443
		c0.125,1.135,0.156,1.956,0.094,2.458c-0.064,0.504-0.159,0.978-0.285,1.417c-0.125,0.443-0.187,0.944-0.187,1.513
		c0,0.567,0.126,1.356,0.378,2.363c-2.019,3.403-4.318,6.05-6.899,7.94c-2.586,1.891-5.328,3.341-8.227,4.348
		c-2.899,1.011-5.954,1.767-9.169,2.27c-3.213,0.503-6.492,1.039-9.83,1.605c-3.341,0.568-6.712,1.356-10.114,2.363
		c-3.403,1.011-6.744,2.522-10.021,4.538c-1.01-0.379-1.923-0.534-2.741-0.473c-0.82,0.065-1.671,0.222-2.553,0.473
		c-0.884,0.254-1.86,0.505-2.93,0.756c-1.074,0.253-2.364,0.253-3.874,0c-1.013,0.882-2.176,1.513-3.499,1.89
		c-1.322,0.378-2.68,0.756-4.065,1.135c0.629,1.388,0.913,2.773,0.851,4.158c-0.065,1.389,0.095,2.585,0.472,3.592
		c5.295,0.505,11.155,0.473,17.582-0.095c6.43-0.567,12.73-0.974,18.906-1.228c0.126,0.631,0.063,1.072-0.188,1.323
		c-0.255,0.254-0.38,0.694-0.38,1.324c1.136,0.757,2.206,1.701,3.215,2.835c1.007,1.135,2.047,2.239,3.119,3.309
		c1.071,1.072,2.176,1.955,3.309,2.647c1.135,0.694,2.459,0.978,3.972,0.851c0.63,1.261,1.069,2.584,1.323,3.97
		c0.252,1.388,0.063,2.835-0.568,4.348c-2.523,1.64-4.979,3.31-7.374,5.01c-2.396,1.701-4.884,3.247-7.467,4.631
		c-2.585,1.39-5.389,2.522-8.413,3.404c-3.024,0.883-6.305,1.262-9.832,1.135c-0.629,0-1.165,0-1.605,0
		c-0.443,0-0.977-0.252-1.606-0.756c-1.263,0.632-2.931,0.85-5.011,0.661c-2.079-0.189-3.813,0.032-5.198,0.663
		c-1.767-0.631-3.813-0.946-6.146-0.946s-4.38-0.314-6.145-0.946c-2.27,3.279-4.41,6.712-6.428,10.304
		c-2.017,3.591-3.779,7.406-5.292,11.438c5.166,0.756,9.45,1.072,12.856,0.945c3.402-0.124,6.616-0.378,9.641-0.756
		c3.024-0.378,6.143-0.756,9.357-1.135c3.215-0.377,7.151-0.502,11.816-0.377c3.148-1.512,6.774-2.553,10.87-3.12
		c4.095-0.568,7.908-1.418,11.439-2.552c1.259,0.377,2.33,1.103,3.214,2.173c0.88,1.073,1.731,2.145,2.552,3.215
		c0.818,1.071,1.669,1.985,2.552,2.741c0.881,0.756,2.014,1.01,3.402,0.756c0.629,0.632,1.04,1.389,1.23,2.27
		c0.188,0.882,0.378,1.701,0.568,2.457c0.187,0.756,0.471,1.356,0.848,1.796c0.379,0.442,1.071,0.6,2.08,0.472
		c-2.396,4.915-5.073,8.697-8.033,11.343c-2.964,2.647-6.305,4.696-10.021,6.145c-3.719,1.45-7.878,2.522-12.479,3.213
		c-4.602,0.695-9.736,1.545-15.408,2.552c-1.387,0.254-2.551,0.221-3.496-0.095c-0.946-0.313-1.924-0.472-2.934-0.472
		c-3.527,0.631-7.72,1.258-12.569,1.89c-4.854,0.63-9.735,0.881-14.652,0.756c-4.915-0.126-9.643-0.756-14.18-1.89
		C745.434,144.004,741.652,141.99,738.629,139.088z"/>
	<path class="st0" d="M860.191,138.521c-0.504-0.502-0.946-1.102-1.324-1.796c-0.377-0.691-0.693-1.607-0.945-2.741
		c-1.767-2.142-3.151-4.601-4.158-7.374c-1.011-2.771-1.702-5.639-2.079-8.601c-0.377-2.961-0.442-5.956-0.19-8.98
		c0.251-3.025,0.692-5.861,1.324-8.508c0.378-1.258,0.69-2.582,0.945-3.97c0.629-2.393,1.258-4.756,1.889-7.09
		c0.633-2.331,1.575-4.254,2.838-5.766c-0.507-1.386-0.443-2.898,0.188-4.537c0.628-1.637,1.258-3.149,1.892-4.538
		c0.251-0.377,0.44-0.724,0.568-1.04c0.121-0.313,0.251-0.596,0.377-0.85c1.512-4.411,2.993-8.665,4.443-12.762
		c1.449-4.094,2.865-8.035,4.252-11.815c2.521-6.931,4.944-13.736,7.279-20.418c2.33-6.68,4.443-13.802,6.335-21.364
		c1.007-0.756,1.889-1.259,2.644-1.512c0.255-0.125,0.567-0.251,0.947-0.378c0.378-0.124,0.819-0.189,1.322-0.189
		c2.648,1.389,5.767,2.68,9.359,3.875c3.592,1.201,6.646,1.797,9.169,1.797l3.215,2.836c1.637,1.89,3.055,3.876,4.253,5.955
		c1.197,2.079,1.543,4.758,1.041,8.034c-0.759,1.135-1.39,1.829-1.891,2.08c-0.758,2.901-1.577,5.453-2.459,7.657
		c-0.883,2.207-1.765,4.319-2.648,6.333c-1.009,2.27-1.954,4.538-2.834,6.807c-0.882,2.268-1.641,5.042-2.27,8.318
		c-0.755,0.882-1.226,1.639-1.417,2.269c-0.188,0.631-0.411,1.261-0.662,1.89c-0.253,0.757-0.564,1.545-0.945,2.363
		c-0.378,0.822-0.943,1.545-1.702,2.175c-0.504,3.909-1.261,7.09-2.266,9.548c-1.011,2.458-2.02,4.886-3.025,7.279
		c-1.769,4.413-3.404,8.791-4.918,13.139c-1.511,4.348-2.396,9.296-2.646,14.842c1.513-0.379,2.897-0.567,4.16-0.567
		c1.636,0,3.214,0.253,4.727,0.756c4.537-2.269,9.482-3.655,14.839-4.159c5.359-0.502,10.684-0.819,15.979-0.945
		c4.408,0,8.506-0.189,12.287-0.567c1.259,0.883,2.079,1.355,2.457,1.417c0.379,0.065,1.01,0.095,1.892,0.095
		c0.379,0,0.756,0,1.133,0c0.379,0,0.882,0.065,1.514,0.189c1.764,1.766,3.465,2.996,5.104,3.686
		c1.637,0.694,3.403,1.356,5.293,1.985c1.638,0.632,3.246,1.293,4.822,1.985c1.574,0.694,3.119,1.607,4.631,2.741l1.704,9.642
		c1.007,1.388,1.446,2.334,1.32,2.836c0,1.01-0.254,1.891-0.757,2.647l0.38,2.458c-2.396,0.505-3.972,1.04-4.728,1.608
		c-0.755,0.566-1.576,1.293-2.456,2.172c-1.39,0.128-2.712,0.19-3.972,0.19c-2.523,0-5.104,0.378-7.752,1.133
		c-3.78-1.385-7.938-2.079-12.476-2.079c-1.767,0-3.564,0.065-5.388,0.189c-1.83,0.127-3.626,0.317-5.389,0.566
		c-1.892,0.254-3.783,0.474-5.672,0.662c-1.891,0.19-3.779,0.284-5.673,0.284c-1.512,0.254-2.583,0.442-3.212,0.566
		c-0.634,0.127-1.264,0.316-1.892,0.567c-4.287,1.389-8.919,2.775-13.896,4.159c-4.978,1.386-9.99,2.081-15.028,2.081
		c-7.44,0-13.424-1.892-17.961-5.672c-0.506-1.135-0.884-1.89-1.135-2.269C860.694,139.466,860.442,139.027,860.191,138.521z"/>
	<path class="st0" d="M975.138,147.786c-1.767-1.134-3.185-2.582-4.255-4.349c-1.068-1.764-1.953-3.654-2.646-5.672
		c-0.69-2.014-1.258-4.126-1.701-6.333c-0.44-2.203-0.913-4.316-1.418-6.333c0-1.764,0.378-3.054,1.133-3.875
		c0.759-0.819,1.579-1.608,2.46-2.363c3.021-0.124,5.733-0.379,8.13-0.757c2.392-0.377,4.727-0.755,6.992-1.133
		c2.271-0.379,4.539-0.725,6.807-1.042c2.27-0.312,4.728-0.47,7.375-0.47c1.89-3.907,3.653-7.659,5.294-11.25
		c1.636-3.592,3.212-7.025,4.725-10.304c0.757-3.149,1.731-6.08,2.932-8.791c1.196-2.709,2.363-5.294,3.497-7.751
		c1.134-2.458,2.141-4.916,3.024-7.374c0.88-2.458,1.447-5.072,1.702-7.846c1.513-4.409,2.865-8.475,4.064-12.194
		c1.197-3.716,2.11-8.159,2.742-13.329c-4.791,0.756-8.635,1.482-11.533,2.174c-2.899,0.694-4.982,1.356-6.24,1.985
		c-2.521-0.124-4.507-0.629-5.953-1.512c-1.45-0.881-2.617-1.953-3.499-3.215c-0.884-1.258-1.64-2.708-2.268-4.348
		c-0.633-1.636-1.389-3.338-2.271-5.104c0.503-1.133,0.63-2.803,0.379-5.009c-0.253-2.205-1.009-3.812-2.268-4.822
		c1.007-0.251,1.764-1.102,2.268-2.552c0.503-1.447,0.568-2.553,0.189-3.309c2.141-0.629,4.41-1.04,6.807-1.229
		c2.393-0.189,4.756-0.377,7.09-0.567c2.33-0.188,4.567-0.44,6.711-0.756c2.141-0.313,3.969-0.975,5.483-1.985
		c6.552-0.251,13.391-0.502,20.513-0.756c7.118-0.251,13.705-0.566,19.756-0.945c2.269,0.756,4.882,1.134,7.845,1.134
		c2.96,0,5.924,0.189,8.886,0.567c2.96,0.378,5.607,1.199,7.941,2.458c2.331,1.26,3.938,3.467,4.821,6.617
		c1.891,0.254,3.307,0.756,4.253,1.512c0.945,0.757,1.544,1.672,1.796,2.741c0.252,1.073,0.347,2.269,0.283,3.593
		c-0.063,1.323-0.096,2.616-0.096,3.875c-2.015,1.513-4.568,2.741-7.655,3.686c-3.09,0.945-6.46,1.701-10.114,2.269
		c-3.656,0.567-7.468,0.945-11.438,1.134c-3.97,0.19-7.846,0.349-11.625,0.473c-0.634,4.16-1.735,9.046-3.311,14.652
		c-1.576,5.609-3.184,11.092-4.82,16.447c-1.639,5.359-3.057,10.148-4.254,14.37c-1.198,4.223-1.734,6.965-1.608,8.223
		c-1.259,2.901-2.298,5.359-3.119,7.373c-0.819,2.019-1.575,3.908-2.267,5.672c-0.693,1.768-1.389,3.498-2.081,5.2
		c-0.693,1.701-1.544,3.624-2.551,5.766h12.856c0.249,1.388,0.816,2.333,1.701,2.835c0.879,0.505,1.824,0.945,2.834,1.324
		c1.008,0.379,1.92,0.851,2.741,1.418c0.819,0.567,1.23,1.482,1.23,2.741c2.391,0.631,3.904,1.577,4.537,2.835
		c0.628,1.262,0.785,2.617,0.474,4.065c-0.317,1.451-0.945,2.93-1.894,4.443c-0.945,1.512-1.859,2.835-2.739,3.97
		c-1.134-0.251-2.206,0.033-3.214,0.851c-1.011,0.821-1.956,1.733-2.837,2.742c-3.656-0.503-7.248-0.568-10.777-0.19
		c-3.528,0.379-6.806,0.695-9.83,0.946c-0.63,0.126-0.882,0.473-0.756,1.04c0.126,0.568,0,0.978-0.377,1.229
		c-3.908-1.259-7.911-1.764-12.006-1.512c-4.098,0.253-8.258,0.851-12.478,1.796c-4.224,0.945-8.539,1.955-12.951,3.024
		C984.148,147.059,979.675,147.658,975.138,147.786z"/>
	<path class="st0" d="M1074.201,60.252c0.38-1.891,0.633-3.433,0.758-4.632c0.124-1.197-0.316-2.488-1.322-3.875
		c0.502-2.015,0.912-3.592,1.228-4.727c0.313-1.134,0.347-2.708,0.095-4.726c1.134-3.276,2.866-6.049,5.199-8.318
		c2.331-2.269,4.883-4.189,7.656-5.766c2.771-1.575,5.671-2.898,8.696-3.971c3.024-1.07,5.862-1.984,8.508-2.741
		c0-0.502-0.255-0.756-0.756-0.756c-0.505,0-0.632-0.313-0.379-0.946c6.807-1.258,13.643-3.087,20.514-5.482
		c6.866-2.393,13.896-4.537,21.078-6.427c7.186-1.892,14.559-3.056,22.122-3.499c7.561-0.439,15.501,0.538,23.82,2.931
		c0.503,1.513,1.196,2.962,2.08,4.348c0.879,1.388,1.795,2.741,2.74,4.065c0.946,1.323,1.797,2.617,2.554,3.875
		c0.755,1.261,1.193,2.584,1.323,3.971c1.512,1.387,2.74,2.868,3.687,4.443c0.944,1.576,1.101,3.685,0.473,6.332
		c-1.39,1.01-2.837,2.018-4.349,3.025c-1.513,1.01-3.091,1.956-4.729,2.837c-5.671-1.386-11.342-1.891-17.013-1.513
		c-5.674,0.378-10.777,0.821-15.313,1.324c-1.388-1.513-3.024-2.236-4.917-2.174c-1.891,0.064-3.875,0.377-5.956,0.944
		c-2.078,0.568-4.128,1.135-6.143,1.701c-2.017,0.568-3.908,0.727-5.673,0.473c-1.386,1.262-3.214,2.112-5.482,2.553
		c-2.268,0.443-4.663,0.789-7.184,1.039c-0.127,0.633,0,1.073,0.377,1.324c0.379,0.254,0.441,0.757,0.19,1.513
		c0.882,1.134,2.079,1.922,3.591,2.363c1.513,0.443,3.055,0.851,4.632,1.229c1.575,0.379,2.994,0.916,4.255,1.608
		c1.26,0.694,2.08,1.796,2.457,3.308c2.271,0.127,4.224,0.727,5.861,1.796c1.637,1.072,3.024,2.363,4.159,3.875
		c1.136,1.512,1.952,3.12,2.459,4.821c0.501,1.702,0.69,3.246,0.565,4.632c0.503,1.261,1.041,1.767,1.607,1.513
		c0.567-0.251,1.23,0.064,1.984,0.945c0.503,1.892,1.668,3.876,3.498,5.956c1.826,2.08,3.243,4.317,4.254,6.71
		c0.251,3.782,0.472,7.185,0.663,10.21c0.187,3.025-0.351,5.988-1.608,8.885c-2.145,5.547-5.23,10.525-9.263,14.935
		c-4.035,4.414-8.604,8.29-13.708,11.627c-5.104,3.341-10.491,6.239-16.164,8.698c-5.67,2.458-11.281,4.506-16.826,6.144
		c-0.505-0.127-1.104-0.127-1.796,0c-0.692,0.124-0.851-0.254-0.472-1.135c-1.135,1.008-2.43,1.637-3.875,1.891
		c-1.449,0.251-3.025,0.345-4.728,0.284c-1.701-0.064-3.402-0.16-5.105-0.284c-1.699-0.127-3.371-0.065-5.008,0.189
		c-1.011-1.01-1.925-2.017-2.742-3.025c-0.819-1.008-1.483-2.204-1.984-3.593c-0.634-0.124-0.917-0.534-0.853-1.229
		c0.064-0.691-0.22-1.04-0.851-1.04c0-0.503,0.063-0.88,0.19-1.134c0.123-0.251,0.251-0.501,0.377-0.755
		c0.502-0.379,0.725-0.663,0.661-0.851c-0.065-0.189-0.254-0.377-0.565-0.568c-0.316-0.188-0.634-0.407-0.945-0.661
		c-0.316-0.251-0.412-0.568-0.285-0.946c0.63-1.134,0.853-2.488,0.662-4.065c-0.189-1.575-0.349-3.181-0.472-4.821
		c-0.128-1.636,0-3.181,0.377-4.631c0.379-1.448,1.446-2.677,3.214-3.687c5.169,0.505,10.048,0.254,14.653-0.756
		c4.598-1.008,8.946-2.393,13.043-4.159c4.097-1.764,8.002-3.688,11.724-5.767c3.716-2.08,7.34-3.999,10.87-5.766
		c0.377-1.259,0.975-2.331,1.795-3.214c0.818-0.881,1.668-1.731,2.553-2.552c0.882-0.818,1.702-1.701,2.459-2.647
		c0.755-0.945,1.322-2.109,1.7-3.497c0.125-0.502,0.125-0.88,0-1.135c-0.127-0.251-0.316-0.473-0.568-0.662
		c-0.252-0.189-0.504-0.408-0.755-0.662c-0.254-0.251-0.377-0.628-0.377-1.134c-0.38-0.124-0.728-0.251-1.04-0.378
		c-0.316-0.124-0.602-0.189-0.853-0.189c-3.277-1.636-6.741-3.025-10.397-4.159c-3.657-1.135-6.744-2.393-9.265-3.782
		c-1.512,1.01-3.025,1.262-4.535,0.757c-1.514-0.503-3.343-1.009-5.481-1.512c-5.296-0.252-10.307-0.757-15.031-1.513
		c-4.729-0.757-9.298-2.08-13.708-3.97c-0.254-0.756-0.567-1.418-0.945-1.986c-0.377-0.567-1.263-0.723-2.647-0.472
		c-0.881-1.258-1.794-2.426-2.741-3.497C1075.81,62.869,1074.959,61.641,1074.201,60.252z"/>
</g>
</svg>
