<?xml version="1.0" encoding="utf-8"?>
<!-- Generator: Adobe Illustrator 16.0.0, SVG Export Plug-In . SVG Version: 6.00 Build 0)  -->
<!DOCTYPE svg PUBLIC "-//W3C//DTD SVG 1.1//EN" "http://www.w3.org/Graphics/SVG/1.1/DTD/svg11.dtd">
<svg version="1.1" id="Layer_1" xmlns="http://www.w3.org/2000/svg" xmlns:xlink="http://www.w3.org/1999/xlink" x="0px" y="0px"
	 viewBox="0 0 436.216 109.73" style="enable-background:new 0 0 436.216 109.73;"
	 xml:space="preserve">


	

<defs>
	<style type="text/css">
		
		.st0{fill:none;stroke:#000000;stroke-width:2;stroke-miterlimit:10;}

		.st0 {
			stroke-dasharray: 800;
			stroke-dashoffset: 0;
			-webkit-animation: dash 4s linear forwards;
			-o-animation: dash 4s linear forwards;
			-moz-animation: dash 4s linear forwards;
			}
			@-webkit-keyframes dash {
				from {
				stroke-dashoffset: 800;
				fill: none;
				}
				to {
				stroke-dashoffset: 0;
				fill:#000000;
				}

			}


	

	</style>

</defs>



<g>
	<path class="st0" d="M3.617,62.345c0.045-0.182,0.147-0.262,0.308-0.239c0.159,0.023,0.308,0.012,0.444-0.034
		c-0.365-0.364-0.593-0.854-0.684-1.47c-0.092-0.615-0.319-1.128-0.684-1.538c0.091-0.228,0.171-0.455,0.239-0.684
		c0.068-0.228,0.262-0.318,0.581-0.273c-0.137-1.002-0.114-1.937,0.068-2.803c0.182-0.865,0.467-1.686,0.854-2.461
		c0.387-0.774,0.843-1.538,1.367-2.29c0.523-0.752,1.036-1.515,1.538-2.29c0.41-0.091,0.66-0.057,0.752,0.103
		c0.091,0.16,0.25,0.126,0.479-0.103c0.729-0.501,1.23-1.06,1.504-1.675s0.41-1.287,0.41-2.017c0.41-1.185,0.877-2.358,1.401-3.521
		c0.523-1.162,1.128-2.244,1.812-3.247c0.684-1.002,1.412-1.88,2.188-2.632c0.774-0.752,1.617-1.333,2.529-1.743
		c0.638-0.547,1.446-1.048,2.427-1.504c0.979-0.455,2.027-0.809,3.145-1.06c1.116-0.25,2.267-0.387,3.452-0.41
		c1.185-0.022,2.278,0.103,3.281,0.376c0.228,0.092,0.364,0.034,0.41-0.171c0.045-0.205,0.159-0.308,0.342-0.308
		c2.278,0.273,4.317,0.729,6.118,1.367c1.8,0.639,3.338,1.527,4.614,2.666c0.865,1.367,1.686,2.837,2.461,4.409
		c0.774,1.572,1.378,3.213,1.812,4.922c0.433,1.709,0.626,3.476,0.581,5.298c-0.046,1.823-0.434,3.646-1.162,5.469
		c-1.596,2.006-3.532,3.612-5.811,4.819c-2.279,1.208-4.729,2.211-7.349,3.008c-2.621,0.798-5.332,1.447-8.135,1.948
		c-2.803,0.502-5.526,1.049-8.169,1.641c0.045,1.23,0.045,2.541,0,3.931c-0.046,1.391-0.194,2.78-0.444,4.17
		c-0.251,1.391-0.615,2.746-1.094,4.067c-0.479,1.322-1.128,2.553-1.948,3.691c-0.912-0.046-1.857,0.045-2.837,0.273
		c-0.98,0.228-1.857,0.455-2.632,0.684c-0.365-0.229-0.718-0.444-1.06-0.649s-0.764-0.331-1.265-0.376
		c0.137-0.547,0.011-1.116-0.376-1.709c-0.388-0.592-0.775-1.173-1.162-1.743c-0.388-0.569-0.639-1.139-0.752-1.709
		c-0.114-0.569,0.147-1.082,0.786-1.538c-0.365-0.318-0.547-0.82-0.547-1.504c0.182,0.183,0.41,0.273,0.684,0.273
		c-0.092-0.82,0.011-1.8,0.308-2.939c0.296-1.139,0.547-2.267,0.752-3.384c0.205-1.116,0.239-2.142,0.103-3.076
		C5.121,63.428,4.574,62.755,3.617,62.345z M21.39,46.349c-0.183,0.502-0.331,0.946-0.444,1.333
		c-0.114,0.388-0.239,0.741-0.376,1.06c-0.137,0.319-0.285,0.639-0.444,0.957c-0.16,0.319-0.331,0.684-0.513,1.094
		c0.091,0.273,0.273,0.479,0.547,0.615s0.455,0.342,0.547,0.615c0.638-0.318,1.275-0.558,1.914-0.718
		c0.638-0.159,1.275-0.284,1.914-0.376c0.638-0.091,1.275-0.205,1.914-0.342c0.638-0.137,1.299-0.364,1.982-0.684
		c0.684-0.318,1.401-0.581,2.153-0.786s1.492-0.421,2.222-0.649c0.729-0.228,1.436-0.489,2.119-0.786
		c0.684-0.296,1.275-0.694,1.777-1.196c-0.639-0.592-1.596-1.116-2.871-1.572c-1.276-0.455-2.655-0.74-4.136-0.854
		c-1.481-0.113-2.963-0.011-4.443,0.308C23.771,44.686,22.484,45.347,21.39,46.349z"/>

	<path class="st0" d="M47.23,75.743c-0.229,0.046-0.434-0.125-0.615-0.513c-0.183-0.387-0.388-0.763-0.615-1.128h0.752
		c-0.319-1.002-0.399-1.925-0.239-2.769c0.159-0.843,0.353-1.663,0.581-2.461c0.228-0.797,0.421-1.572,0.581-2.324
		c0.159-0.752,0.079-1.538-0.239-2.358c0.228,0.137,0.398,0.08,0.513-0.171c0.113-0.25,0.205-0.569,0.273-0.957
		c0.068-0.387,0.091-0.797,0.068-1.23c-0.023-0.433-0.058-0.786-0.103-1.06c0.592-1.412,1.06-2.871,1.401-4.375
		s0.649-2.996,0.923-4.478c0.273-1.48,0.581-2.916,0.923-4.307c0.342-1.39,0.786-2.7,1.333-3.931
		c0.638-0.091,1.31-0.011,2.017,0.239c0.706,0.251,1.173,0.559,1.401,0.923c1.412-1.094,2.666-2.415,3.76-3.965
		c1.094-1.549,2.198-3.064,3.315-4.546c1.116-1.48,2.381-2.791,3.794-3.931c1.412-1.139,3.167-1.822,5.264-2.051
		c1.094,0.775,2.324,1.606,3.691,2.495s2.483,1.994,3.35,3.315c0.364,0.229,0.718,0.468,1.06,0.718
		c0.342,0.251,0.694,0.49,1.06,0.718v1.025c0.638,0.593,1.173,1.288,1.606,2.085c0.433,0.798,0.82,1.641,1.162,2.529
		s0.672,1.789,0.991,2.7c0.318,0.912,0.684,1.755,1.094,2.529c-0.092,0.273-0.126,0.513-0.103,0.718
		c0.022,0.205,0.068,0.41,0.137,0.615s0.125,0.434,0.171,0.684c0.045,0.251,0.068,0.559,0.068,0.923
		c-0.183,2.416-0.969,4.364-2.358,5.845c-1.391,1.481-3.076,2.689-5.059,3.623c-1.982,0.935-4.091,1.732-6.323,2.393
		c-2.233,0.661-4.262,1.379-6.084,2.153c0,0.183,0.103,0.273,0.308,0.273s0.262,0.137,0.171,0.41
		c1.367,0.82,2.427,1.481,3.179,1.982c0.752,0.502,1.458,0.923,2.119,1.265c0.66,0.342,1.39,0.627,2.188,0.854
		c0.797,0.229,1.902,0.502,3.315,0.82c1.412,0.319,2.518,0.581,3.315,0.786c0.797,0.205,1.515,0.365,2.153,0.479
		c0.638,0.114,1.321,0.217,2.051,0.308c0.729,0.092,1.709,0.205,2.939,0.342c0.501,0.502,0.911,1.094,1.23,1.777
		c0.318,0.684,0.547,1.367,0.684,2.051s0.171,1.333,0.103,1.948s-0.263,1.105-0.581,1.47c0.045,0.183,0.171,0.263,0.376,0.239
		c0.205-0.022,0.421-0.011,0.649,0.034c-0.319,0.229-0.593,0.502-0.82,0.82c-0.229,0.319-0.456,0.638-0.684,0.957
		c-0.229,0.318-0.49,0.615-0.786,0.889c-0.297,0.273-0.673,0.433-1.128,0.479c-1.641,0.638-3.737,0.66-6.289,0.068
		c-2.553-0.593-5.811-1.641-9.775-3.145c-1.96-0.729-3.555-1.39-4.785-1.982c-1.23-0.592-2.302-1.173-3.213-1.743
		c-0.912-0.569-1.755-1.185-2.529-1.846c-0.775-0.66-1.664-1.446-2.666-2.358c-0.137,0.046-0.217,0.137-0.239,0.273
		c-0.023,0.137-0.103,0.229-0.239,0.273c-0.229,1.823-0.581,3.305-1.06,4.443c-0.479,1.14-1.174,2.302-2.085,3.486
		c-0.729-0.137-1.22-0.068-1.47,0.205c-0.251,0.273-0.559,0.523-0.923,0.752c-0.456,0.091-0.798,0.079-1.025-0.034
		c-0.229-0.114-0.434-0.239-0.615-0.376c-0.183-0.137-0.388-0.273-0.615-0.41c-0.229-0.137-0.593-0.182-1.094-0.137
		c-0.137-0.41-0.273-0.809-0.41-1.196c-0.137-0.387-0.502-0.558-1.094-0.513c0.137-0.41,0.182-0.763,0.137-1.06
		c-0.046-0.296-0.114-0.569-0.205-0.82c-0.092-0.25-0.171-0.513-0.239-0.786S47.093,76.108,47.23,75.743z M70.062,44.503
		c-0.593,0.866-1.254,1.652-1.982,2.358c-0.729,0.707-1.447,1.436-2.153,2.188c-0.707,0.752-1.333,1.572-1.88,2.461
		s-0.935,1.948-1.162,3.179c1.914-0.228,3.919-0.763,6.016-1.606c2.096-0.843,4.078-1.651,5.947-2.427
		c-0.229-1.686-0.82-3.042-1.777-4.067S71.11,44.868,70.062,44.503z"/>
	<path class="st0" d="M88.792,75.128l0.889-0.684l0.068-1.436c1.139-2.779,2.313-5.445,3.521-7.998
		c1.207-2.552,2.472-5.172,3.794-7.861c0.41-0.865,0.831-1.731,1.265-2.598c0.433-0.865,0.854-1.754,1.265-2.666
		c-0.046-0.182-0.068-0.376-0.068-0.581s0.045-0.444,0.137-0.718c0.638-0.911,1.15-1.731,1.538-2.461
		c0.387-0.729,0.763-1.48,1.128-2.256c0.41-0.911,0.854-1.822,1.333-2.734c0.479-0.911,1.082-1.8,1.812-2.666l0.479-0.684
		l0.752,0.068c0.182-0.091,0.376-0.171,0.581-0.239s0.467-0.103,0.786-0.103l1.23,0.205c1.504-0.684,2.837-1.675,3.999-2.974
		s2.335-2.859,3.521-4.683l0.82-1.162l1.094,0.684c0.228,0.137,0.592,0.273,1.094,0.41c0.501,0.137,1.025,0.297,1.572,0.479
		c0.957,0.229,1.891,0.49,2.803,0.786c0.911,0.297,1.617,0.695,2.119,1.196l0.342,0.615c0.091,0.502,0.171,0.957,0.239,1.367
		s0.147,0.82,0.239,1.23c0.182,0.957,0.342,1.903,0.479,2.837c0.137,0.935,0.228,1.972,0.273,3.11
		c0.228,0.912,0.444,1.835,0.649,2.769c0.205,0.935,0.398,1.857,0.581,2.769c0.228,1.322,0.479,2.587,0.752,3.794
		c0.273,1.208,0.638,2.358,1.094,3.452c0.455,0,0.729,0.023,0.82,0.068c0.547-0.228,1.185-0.364,1.914-0.41l0.889-0.068l0.273,0.82
		c0.091,0.137,0.205,0.273,0.342,0.41s0.296,0.273,0.479,0.41c0.729,0.046,1.265,0.194,1.606,0.444
		c0.342,0.251,0.626,0.49,0.854,0.718c0.091,0.092,0.205,0.194,0.342,0.308c0.137,0.114,0.25,0.194,0.342,0.239l1.23,0.479
		l-0.684,1.299c-0.502,0.957-1.265,1.892-2.29,2.803c-1.025,0.912-2.177,1.664-3.452,2.256c0.091,0.319,0.147,0.615,0.171,0.889
		c0.022,0.273,0.079,0.593,0.171,0.957c0.182,0.912,0.33,1.857,0.444,2.837c0.113,0.98,0.103,1.994-0.034,3.042
		c-0.456,1.186-0.991,2.245-1.606,3.179c-0.615,0.935-1.345,1.777-2.188,2.529c-0.844,0.752-1.789,1.367-2.837,1.846
		c-1.049,0.479-2.143,0.74-3.281,0.786c-0.639-0.137-1.105-0.297-1.401-0.479c-0.297-0.182-0.559-0.364-0.786-0.547
		c-0.365-0.273-0.661-0.455-0.889-0.547l-0.889-0.41l0.273-1.025c0.137-0.364,0.125-0.684-0.034-0.957
		c-0.16-0.273-0.49-0.638-0.991-1.094c-0.183-0.137-0.342-0.284-0.479-0.444c-0.137-0.159-0.297-0.33-0.479-0.513l-1.367-1.572
		l2.256-0.615c1.367-0.364,2.278-0.831,2.734-1.401c0.455-0.569,0.638-1.583,0.547-3.042c-1.14-0.228-2.074-0.262-2.803-0.103
		c-0.729,0.16-1.459,0.331-2.188,0.513c-1.049,0.273-2.074,0.513-3.076,0.718c-1.003,0.205-2.097,0.308-3.281,0.308
		c-0.775,0-1.596-0.068-2.461-0.205l-0.752-0.068l-0.205-0.752c0-0.091-0.058-0.193-0.171-0.308
		c-0.114-0.113-0.217-0.216-0.308-0.308c-0.229-0.273-0.502-0.638-0.82-1.094c-0.319-0.455-0.388-1.025-0.205-1.709
		c-0.319-0.501-0.502-1.025-0.547-1.572c-0.183,0.365-0.331,0.718-0.444,1.06c-0.114,0.342-0.217,0.673-0.308,0.991l-0.273,0.889
		l-0.889,0.137c-0.092,0.092-0.171,0.229-0.239,0.41c-0.068,0.183-0.08,0.319-0.034,0.41l0.273,0.752l-0.684,0.615
		c-0.092,0.137-0.205,0.251-0.342,0.342c-0.137,0.092-0.251,0.183-0.342,0.273c-0.092,0.502-0.217,0.98-0.376,1.436
		c-0.16,0.456-0.331,0.912-0.513,1.367c-0.229,0.729-0.444,1.436-0.649,2.119s-0.308,1.367-0.308,2.051l-0.273,0.889
		c-0.229,0.365-0.513,0.639-0.854,0.82c-0.342,0.183-0.673,0.342-0.991,0.479c-0.456,0.183-0.775,0.365-0.957,0.547l-0.205,0.889
		l-1.025,0.137c-0.593,0.137-1.015,0.228-1.265,0.273c-0.251,0.045-0.536,0.068-0.854,0.068l-0.889-0.068
		c-0.547-0.547-0.991-0.968-1.333-1.265c-0.342-0.296-0.741-0.558-1.196-0.786l-0.41-0.547c-0.183-0.364-0.296-0.694-0.342-0.991
		c-0.045-0.296-0.113-0.604-0.205-0.923c-0.091-0.592-0.228-1.002-0.41-1.23L88.792,75.128z M110.599,57.354
		c-0.639,0.912-1.254,1.869-1.846,2.871c0.318-0.045,0.626-0.068,0.923-0.068c0.296,0,0.604-0.022,0.923-0.068
		c1.595-0.091,3.076-0.205,4.443-0.342s2.848-0.364,4.443-0.684c-0.365-1.686-0.764-3.406-1.196-5.161
		c-0.434-1.754-0.9-3.521-1.401-5.298l-0.342,0.684c-1.14,1.23-2.233,2.553-3.281,3.965c-1.049,1.413-1.914,2.758-2.598,4.033
		L110.599,57.354z"/>
	<path class="st0" d="M143.275,83.946c-1.777-1.322-3.088-2.95-3.931-4.888c-0.843-1.937-0.945-3.862-0.308-5.776
		c0.092-1.412,0.444-2.769,1.06-4.067s1.367-2.54,2.256-3.726c0.889-1.185,1.856-2.301,2.905-3.35
		c1.048-1.048,2.027-2.027,2.939-2.939c0.182-0.547,0.501-1.025,0.957-1.436c0.455-0.41,0.945-0.809,1.47-1.196
		c0.523-0.387,1.048-0.809,1.572-1.265c0.523-0.455,0.945-0.979,1.265-1.572c-0.183-0.638-0.479-1.275-0.889-1.914
		c-0.41-0.638-0.866-1.275-1.367-1.914c-0.502-0.638-1.025-1.275-1.572-1.914c-0.547-0.638-1.049-1.299-1.504-1.982
		c-0.046-0.228-0.217-0.296-0.513-0.205c-0.297,0.092-0.513,0.068-0.649-0.068c0.091-0.729-0.058-1.515-0.444-2.358
		c-0.388-0.843-0.9-1.561-1.538-2.153c0.228-0.547,0.444-1.253,0.649-2.119c0.205-0.865,0.147-1.8-0.171-2.803
		c-0.046-0.455,0.011-0.889,0.171-1.299c0.159-0.41,0.33-0.797,0.513-1.162c0.182-0.364,0.318-0.718,0.41-1.06
		c0.091-0.342,0.068-0.694-0.068-1.06c0.684-0.091,1.31-0.057,1.88,0.103c0.569,0.16,1.094,0.342,1.572,0.547
		s0.934,0.376,1.367,0.513c0.433,0.137,0.854,0.114,1.265-0.068c-0.092,0.273-0.103,0.468-0.034,0.581
		c0.068,0.114,0.159,0.205,0.273,0.273c0.113,0.068,0.228,0.126,0.342,0.171c0.113,0.046,0.171,0.16,0.171,0.342
		c0.865,0.273,1.812,0.866,2.837,1.777c1.025,0.912,2.017,1.914,2.974,3.008s1.822,2.177,2.598,3.247
		c0.774,1.071,1.344,1.903,1.709,2.495c1.321-0.82,2.745-1.8,4.272-2.939c1.526-1.139,3.099-2.301,4.717-3.486
		c1.617-1.185,3.258-2.313,4.922-3.384c1.663-1.07,3.292-1.925,4.888-2.563c0.911,0.41,1.629,0.935,2.153,1.572
		c0.523,0.639,0.957,1.311,1.299,2.017c0.342,0.707,0.66,1.413,0.957,2.119c0.296,0.707,0.694,1.333,1.196,1.88
		c-0.456,0.912-0.935,1.675-1.436,2.29c-0.502,0.615-0.866,1.356-1.094,2.222c-1.14,0.456-2.507,1.186-4.102,2.188
		c-1.367,0.866-3.1,2.051-5.195,3.555c-2.097,1.504-4.58,3.486-7.451,5.947c0.684,0.775,1.241,1.504,1.675,2.188
		c0.433,0.684,0.786,1.276,1.06,1.777c0.318,0.593,0.569,1.14,0.752,1.641c0.501,0.365,0.911,0.798,1.23,1.299
		c0.318,0.502,0.626,1.015,0.923,1.538c0.296,0.524,0.626,1.015,0.991,1.47c0.364,0.456,0.843,0.82,1.436,1.094
		c0.182,0.82,0.41,1.584,0.684,2.29c0.273,0.707,0.535,1.401,0.786,2.085c0.25,0.684,0.455,1.356,0.615,2.017
		c0.159,0.661,0.216,1.333,0.171,2.017c-0.365,1.23-0.912,2.256-1.641,3.076c-0.729,0.82-1.254,1.664-1.572,2.529
		c-0.502,0.137-0.991,0.285-1.47,0.444s-0.878,0.398-1.196,0.718l-4.648-3.281c-0.82-2.734-2.006-5.354-3.555-7.861
		c-1.55-2.506-3.054-4.671-4.512-6.494c-2.188,1.687-4.284,3.555-6.289,5.605c-2.006,2.051-3.828,4.238-5.469,6.563
		c-0.092,1.14-0.229,2.085-0.41,2.837c-0.183,0.752-0.479,1.379-0.889,1.88s-0.935,0.934-1.572,1.299
		C145.029,83.217,144.232,83.581,143.275,83.946z"/>
	<path class="st0" d="M183.812,82.442c-0.639-0.41-1.151-0.934-1.538-1.572c-0.387-0.638-0.706-1.321-0.957-2.051
		c-0.25-0.729-0.455-1.492-0.615-2.29c-0.159-0.797-0.33-1.561-0.513-2.29c0-0.638,0.137-1.104,0.41-1.401
		c0.273-0.296,0.57-0.581,0.889-0.854c1.094-0.045,2.073-0.137,2.939-0.273c0.865-0.137,1.709-0.273,2.529-0.41
		s1.641-0.262,2.461-0.376c0.82-0.113,1.709-0.171,2.666-0.171c0.684-1.412,1.321-2.769,1.914-4.067
		c0.592-1.299,1.162-2.54,1.709-3.726c0.273-1.139,0.626-2.198,1.06-3.179c0.433-0.979,0.854-1.914,1.265-2.803
		s0.774-1.777,1.094-2.666c0.318-0.889,0.523-1.834,0.615-2.837c0.547-1.595,1.036-3.064,1.47-4.409
		c0.433-1.344,0.763-2.95,0.991-4.819c-1.732,0.273-3.122,0.536-4.17,0.786c-1.049,0.251-1.801,0.49-2.256,0.718
		c-0.912-0.045-1.63-0.228-2.153-0.547c-0.524-0.318-0.946-0.706-1.265-1.162c-0.319-0.455-0.593-0.979-0.82-1.572
		c-0.229-0.592-0.502-1.207-0.82-1.846c0.182-0.41,0.228-1.014,0.137-1.812c-0.092-0.797-0.365-1.378-0.82-1.743
		c0.364-0.091,0.638-0.398,0.82-0.923c0.182-0.523,0.205-0.923,0.068-1.196c0.774-0.228,1.595-0.376,2.461-0.444
		c0.865-0.068,1.72-0.137,2.563-0.205c0.843-0.068,1.651-0.159,2.427-0.273c0.774-0.113,1.436-0.353,1.982-0.718
		c2.369-0.091,4.842-0.182,7.417-0.273c2.574-0.091,4.956-0.205,7.144-0.342c0.82,0.273,1.766,0.41,2.837,0.41
		c1.07,0,2.142,0.068,3.213,0.205c1.07,0.137,2.027,0.434,2.871,0.889c0.843,0.456,1.424,1.254,1.743,2.393
		c0.684,0.092,1.196,0.273,1.538,0.547s0.558,0.604,0.649,0.991c0.091,0.388,0.125,0.82,0.103,1.299
		c-0.023,0.479-0.034,0.946-0.034,1.401c-0.729,0.547-1.652,0.991-2.769,1.333c-1.117,0.342-2.336,0.615-3.657,0.82
		c-1.322,0.205-2.7,0.342-4.136,0.41s-2.837,0.126-4.204,0.171c-0.229,1.504-0.627,3.271-1.196,5.298
		c-0.57,2.028-1.151,4.011-1.743,5.947c-0.593,1.938-1.105,3.669-1.538,5.195c-0.434,1.527-0.627,2.519-0.581,2.974
		c-0.456,1.049-0.832,1.938-1.128,2.666c-0.297,0.729-0.57,1.413-0.82,2.051c-0.251,0.639-0.502,1.265-0.752,1.88
		c-0.251,0.615-0.559,1.311-0.923,2.085h4.648c0.091,0.502,0.296,0.844,0.615,1.025c0.318,0.183,0.66,0.342,1.025,0.479
		c0.364,0.137,0.694,0.308,0.991,0.513c0.296,0.205,0.444,0.536,0.444,0.991c0.865,0.229,1.412,0.57,1.641,1.025
		c0.228,0.456,0.284,0.946,0.171,1.47c-0.114,0.524-0.342,1.06-0.684,1.606s-0.673,1.025-0.991,1.436
		c-0.41-0.091-0.798,0.012-1.162,0.308c-0.365,0.297-0.707,0.627-1.025,0.991c-1.322-0.182-2.621-0.205-3.896-0.068
		c-1.276,0.137-2.461,0.251-3.555,0.342c-0.229,0.046-0.319,0.171-0.273,0.376c0.045,0.205,0,0.354-0.137,0.444
		c-1.413-0.455-2.86-0.638-4.341-0.547c-1.481,0.092-2.985,0.308-4.512,0.649c-1.527,0.342-3.088,0.707-4.683,1.094
		C187.07,82.18,185.453,82.396,183.812,82.442z"/>
	<path class="st0" d="M220.248,43.067c-0.046-0.364-0.126-0.694-0.239-0.991c-0.114-0.296-0.239-0.626-0.376-0.991
		c-0.229-0.547-0.434-1.139-0.615-1.777c-0.183-0.638-0.273-1.39-0.273-2.256c0.091-0.455,0.205-0.786,0.342-0.991
		s0.273-0.376,0.41-0.513l0.273-1.23h1.025c0.364,0.046,0.74,0.068,1.128,0.068c0.387,0,0.763,0,1.128,0
		c1.731,0,3.509-0.068,5.332-0.205c1.822-0.137,3.691-0.296,5.605-0.479c2.096-0.273,4.352-0.479,6.768-0.615
		c0.228-0.501,0.376-0.82,0.444-0.957s0.147-0.296,0.239-0.479l0.752-0.41c1.048-0.045,1.777,0.08,2.188,0.376
		c0.41,0.297,0.729,0.581,0.957,0.854c1.185-0.091,2.393-0.216,3.623-0.376c1.23-0.159,2.506-0.33,3.828-0.513
		c1.822-0.228,3.668-0.455,5.537-0.684c1.868-0.228,3.691-0.342,5.469-0.342c0.774,0,1.504,0.023,2.188,0.068
		c0.684,0.046,1.344,0.114,1.982,0.205l0.82,0.615c0.182,0.319,0.41,0.615,0.684,0.889s0.592,0.547,0.957,0.82
		c0.684,0.547,1.355,1.23,2.017,2.051c0.66,0.82,0.899,2.028,0.718,3.623l-0.342,0.684c-0.183,0.183-0.41,0.365-0.684,0.547
		l-0.684,0.889h-0.752c-0.456,0-0.798,0.034-1.025,0.103c-0.229,0.068-0.502,0.171-0.82,0.308c-0.183,0.092-0.388,0.171-0.615,0.239
		c-0.229,0.068-0.479,0.148-0.752,0.239c-0.502-0.045-0.889-0.068-1.162-0.068s-0.593,0-0.957,0c-1.367,0-2.849,0.092-4.443,0.273
		c-1.596,0.183-3.145,0.388-4.648,0.615c-1.094,0.137-2.143,0.263-3.145,0.376c-1.003,0.114-1.914,0.217-2.734,0.308
		c-0.456,1.186-0.866,2.233-1.23,3.145c-0.365,0.912-0.752,1.823-1.162,2.734c-0.41,0.912-0.798,1.835-1.162,2.769
		c-0.365,0.935-0.707,1.972-1.025,3.11c-0.547,0.82-1.003,1.606-1.367,2.358c-0.365,0.752-0.661,1.606-0.889,2.563
		c-0.684,0.775-1.174,1.618-1.47,2.529c-0.297,0.912-0.559,1.687-0.786,2.324l-0.273,1.025c-0.319,0.319-0.513,0.57-0.581,0.752
		c-0.068,0.183-0.194,0.388-0.376,0.615c-0.137,0.593-0.319,1.162-0.547,1.709c-0.092,0.229-0.183,0.468-0.273,0.718
		c-0.092,0.251-0.114,0.444-0.068,0.581c-0.092,0.502-0.229,0.889-0.41,1.162c0,0.273-0.023,0.547-0.068,0.82
		c-0.046,0.273-0.092,0.547-0.137,0.82c-0.092,0.319-0.16,0.604-0.205,0.854c-0.046,0.251-0.023,0.49,0.068,0.718
		c0.137,0.183,0.273,0.365,0.41,0.547c0.137,0.183,0.25,0.41,0.342,0.684c0.091,0.092,0.205,0.16,0.342,0.205
		c0.137,0.046,0.25,0.114,0.342,0.205c0.364,0.319,0.706,0.502,1.025,0.547l0.684,0.82c0.273,1.641,0.022,2.917-0.752,3.828
		c-0.82,1.048-2.188,1.572-4.102,1.572l-0.957-0.068c-0.319-0.319-0.502-0.524-0.547-0.615c-0.41-0.183-0.752-0.331-1.025-0.444
		c-0.273-0.114-0.524-0.33-0.752-0.649c-0.092-0.091-0.205-0.147-0.342-0.171c-0.137-0.022-0.251-0.079-0.342-0.171
		c-0.456-0.137-0.82-0.296-1.094-0.479l-0.752-0.41c0.045-0.455,0.068-0.774,0.068-0.957c-0.365-0.501-0.649-1.048-0.854-1.641
		c-0.205-0.592-0.376-1.207-0.513-1.846c-0.137-0.501-0.263-0.957-0.376-1.367c-0.114-0.41-0.285-0.774-0.513-1.094
		c-0.092-3.189,0.205-5.867,0.889-8.032c0.684-2.164,1.436-4.272,2.256-6.323c0.455-1.094,0.889-2.21,1.299-3.35
		c0.41-1.139,0.774-2.301,1.094-3.486l0.752-0.752c0.318-0.273,0.523-0.433,0.615-0.479c0-0.592,0.113-1.173,0.342-1.743
		c0.228-0.569,0.479-1.15,0.752-1.743c0.182-0.364,0.353-0.729,0.513-1.094c0.159-0.364,0.262-0.684,0.308-0.957
		c-0.319,0-0.604,0.012-0.854,0.034c-0.251,0.023-0.513,0.058-0.786,0.103c-0.593,0.137-1.162,0.205-1.709,0.205
		c-0.41,0-0.707-0.022-0.889-0.068c-0.365,0.183-0.707,0.285-1.025,0.308c-0.319,0.023-0.639,0.034-0.957,0.034h-0.82h-0.82
		c-0.547,0-0.98,0.068-1.299,0.205c-0.639,0-1.049,0-1.23,0c-0.183,0-0.388,0-0.615,0h-0.82h-0.82c-0.365,0-0.775-0.034-1.23-0.103
		c-0.456-0.068-0.935-0.239-1.436-0.513l-0.479-0.547c-0.273-0.501-0.524-0.774-0.752-0.82l-0.752-0.205V43.067z"/>
	<path class="st0" d="M265.091,79.298c-0.365-0.364-0.627-0.797-0.786-1.299c-0.16-0.501-0.536-0.911-1.128-1.23
		c-0.092-0.684-0.217-1.47-0.376-2.358c-0.16-0.889-0.319-1.8-0.479-2.734c-0.16-0.934-0.273-1.868-0.342-2.803
		c-0.068-0.934-0.034-1.788,0.103-2.563c0.091-0.41,0.239-0.797,0.444-1.162c0.205-0.364,0.41-0.718,0.615-1.06
		s0.364-0.694,0.479-1.06c0.113-0.364,0.125-0.729,0.034-1.094c0.273-0.045,0.444-0.193,0.513-0.444
		c0.068-0.25,0.284-0.33,0.649-0.239c0.318-1.002,0.66-1.937,1.025-2.803c0.364-0.865,0.752-1.709,1.162-2.529
		s0.831-1.651,1.265-2.495c0.433-0.843,0.831-1.788,1.196-2.837c-0.775-0.729-1.333-1.515-1.675-2.358
		c-0.342-0.843-0.604-1.697-0.786-2.563c-0.183-0.865-0.319-1.743-0.41-2.632c-0.092-0.889-0.273-1.788-0.547-2.7
		c0.547-0.82,1.207-1.492,1.982-2.017c0.774-0.523,1.629-0.957,2.563-1.299c0.934-0.342,1.948-0.615,3.042-0.82
		s2.256-0.444,3.486-0.718c2.188-0.684,4.146-1.219,5.879-1.606c1.731-0.387,3.418-0.706,5.059-0.957
		c1.641-0.25,3.35-0.479,5.127-0.684s3.828-0.513,6.152-0.923c0.045,0.137,0.125,0.205,0.239,0.205c0.113,0,0.262,0,0.444,0
		c0.137,0.319,0.387,0.479,0.752,0.479c0-0.137-0.012-0.262-0.034-0.376c-0.023-0.113-0.034-0.216-0.034-0.308
		c0.091,0,0.216,0.023,0.376,0.068c0.159,0.046,0.296,0.092,0.41,0.137c0.113,0.046,0.216,0.034,0.308-0.034
		c0.091-0.068,0.113-0.216,0.068-0.444c0.547,0.957,1.253,1.743,2.119,2.358c0.865,0.615,1.822,1.151,2.871,1.606
		c0.045,0.41,0.057,0.707,0.034,0.889c-0.023,0.183-0.058,0.354-0.103,0.513c-0.046,0.16-0.068,0.342-0.068,0.547
		s0.045,0.49,0.137,0.854c-0.729,1.23-1.562,2.188-2.495,2.871c-0.935,0.684-1.926,1.208-2.974,1.572
		c-1.049,0.365-2.153,0.639-3.315,0.82c-1.162,0.183-2.348,0.376-3.555,0.581c-1.208,0.205-2.427,0.49-3.657,0.854
		c-1.23,0.365-2.438,0.912-3.623,1.641c-0.365-0.137-0.695-0.193-0.991-0.171c-0.297,0.023-0.604,0.08-0.923,0.171
		c-0.319,0.092-0.673,0.183-1.06,0.273c-0.388,0.092-0.854,0.092-1.401,0c-0.365,0.319-0.786,0.547-1.265,0.684
		s-0.969,0.273-1.47,0.41c0.228,0.502,0.33,1.003,0.308,1.504c-0.023,0.502,0.034,0.935,0.171,1.299
		c1.914,0.183,4.033,0.171,6.357-0.034s4.603-0.353,6.836-0.444c0.045,0.229,0.022,0.388-0.068,0.479
		c-0.092,0.092-0.137,0.251-0.137,0.479c0.41,0.273,0.797,0.615,1.162,1.025c0.364,0.41,0.74,0.81,1.128,1.196
		c0.387,0.388,0.786,0.707,1.196,0.957c0.41,0.251,0.889,0.354,1.436,0.308c0.228,0.456,0.387,0.935,0.479,1.436
		c0.091,0.502,0.022,1.025-0.205,1.572c-0.912,0.593-1.801,1.196-2.666,1.812c-0.866,0.615-1.767,1.174-2.7,1.675
		c-0.935,0.502-1.948,0.912-3.042,1.23c-1.094,0.319-2.279,0.456-3.555,0.41c-0.229,0-0.422,0-0.581,0
		c-0.16,0-0.354-0.091-0.581-0.273c-0.456,0.229-1.06,0.308-1.812,0.239s-1.379,0.012-1.88,0.239
		c-0.639-0.228-1.379-0.342-2.222-0.342c-0.844,0-1.584-0.113-2.222-0.342c-0.82,1.186-1.596,2.427-2.324,3.726
		c-0.729,1.299-1.367,2.678-1.914,4.136c1.868,0.273,3.418,0.388,4.648,0.342c1.23-0.045,2.393-0.137,3.486-0.273
		s2.222-0.273,3.384-0.41s2.586-0.182,4.272-0.137c1.139-0.547,2.449-0.923,3.931-1.128c1.48-0.205,2.859-0.513,4.136-0.923
		c0.455,0.137,0.843,0.399,1.162,0.786c0.318,0.388,0.626,0.775,0.923,1.162c0.296,0.388,0.604,0.718,0.923,0.991
		c0.318,0.273,0.729,0.365,1.23,0.273c0.228,0.229,0.376,0.502,0.444,0.82c0.068,0.319,0.137,0.615,0.205,0.889
		s0.171,0.49,0.308,0.649c0.137,0.16,0.387,0.217,0.752,0.171c-0.866,1.777-1.835,3.145-2.905,4.102
		c-1.071,0.957-2.279,1.698-3.623,2.222c-1.345,0.524-2.849,0.912-4.512,1.162c-1.664,0.251-3.521,0.559-5.571,0.923
		c-0.502,0.092-0.923,0.08-1.265-0.034c-0.342-0.113-0.695-0.171-1.06-0.171c-1.276,0.229-2.792,0.455-4.546,0.684
		c-1.755,0.228-3.521,0.318-5.298,0.273c-1.777-0.046-3.486-0.273-5.127-0.684S266.185,80.347,265.091,79.298z"/>
	<path class="st0" d="M309.046,79.093c-0.183-0.182-0.342-0.398-0.479-0.649c-0.137-0.25-0.251-0.581-0.342-0.991
		c-0.639-0.774-1.14-1.663-1.504-2.666c-0.365-1.002-0.615-2.039-0.752-3.11c-0.137-1.07-0.16-2.153-0.068-3.247
		c0.091-1.094,0.25-2.119,0.479-3.076c0.137-0.455,0.25-0.934,0.342-1.436c0.228-0.865,0.455-1.72,0.684-2.563
		c0.228-0.843,0.569-1.538,1.025-2.085c-0.183-0.501-0.16-1.048,0.068-1.641c0.228-0.592,0.455-1.139,0.684-1.641
		c0.091-0.137,0.159-0.262,0.205-0.376c0.045-0.113,0.091-0.216,0.137-0.308c0.547-1.595,1.082-3.133,1.606-4.614
		c0.523-1.48,1.036-2.905,1.538-4.272c0.911-2.506,1.788-4.967,2.632-7.383c0.843-2.415,1.606-4.99,2.29-7.725
		c0.364-0.273,0.684-0.455,0.957-0.547c0.091-0.045,0.205-0.091,0.342-0.137c0.137-0.045,0.296-0.068,0.479-0.068
		c0.957,0.502,2.085,0.969,3.384,1.401c1.299,0.434,2.403,0.649,3.315,0.649l1.162,1.025c0.592,0.684,1.104,1.401,1.538,2.153
		c0.433,0.752,0.558,1.721,0.376,2.905c-0.273,0.41-0.502,0.661-0.684,0.752c-0.273,1.049-0.57,1.972-0.889,2.769
		c-0.319,0.798-0.639,1.562-0.957,2.29c-0.365,0.82-0.707,1.641-1.025,2.461c-0.319,0.82-0.593,1.823-0.82,3.008
		c-0.273,0.319-0.444,0.593-0.513,0.82c-0.068,0.229-0.148,0.456-0.239,0.684c-0.092,0.273-0.205,0.559-0.342,0.854
		c-0.137,0.297-0.342,0.559-0.615,0.786c-0.183,1.413-0.456,2.563-0.82,3.452c-0.365,0.889-0.729,1.767-1.094,2.632
		c-0.639,1.596-1.23,3.179-1.777,4.751s-0.866,3.361-0.957,5.366c0.547-0.137,1.048-0.205,1.504-0.205
		c0.592,0,1.162,0.092,1.709,0.273c1.641-0.82,3.429-1.321,5.366-1.504c1.937-0.182,3.862-0.296,5.776-0.342
		c1.595,0,3.076-0.068,4.443-0.205c0.455,0.319,0.752,0.49,0.889,0.513c0.137,0.023,0.364,0.034,0.684,0.034c0.137,0,0.273,0,0.41,0
		s0.318,0.023,0.547,0.068c0.638,0.639,1.253,1.083,1.846,1.333c0.592,0.251,1.23,0.49,1.914,0.718
		c0.592,0.229,1.173,0.468,1.743,0.718c0.569,0.251,1.128,0.581,1.675,0.991l0.615,3.486c0.364,0.502,0.523,0.844,0.479,1.025
		c0,0.365-0.092,0.684-0.273,0.957l0.137,0.889c-0.866,0.183-1.436,0.376-1.709,0.581s-0.57,0.468-0.889,0.786
		c-0.502,0.046-0.98,0.068-1.436,0.068c-0.912,0-1.846,0.137-2.803,0.41c-1.367-0.501-2.871-0.752-4.512-0.752
		c-0.639,0-1.288,0.023-1.948,0.068c-0.661,0.046-1.311,0.114-1.948,0.205c-0.684,0.092-1.367,0.171-2.051,0.239
		s-1.367,0.103-2.051,0.103c-0.547,0.092-0.935,0.16-1.162,0.205c-0.229,0.046-0.456,0.114-0.684,0.205
		c-1.55,0.502-3.225,1.003-5.024,1.504c-1.801,0.501-3.612,0.752-5.435,0.752c-2.689,0-4.854-0.684-6.494-2.051
		c-0.183-0.41-0.319-0.684-0.41-0.82C309.228,79.435,309.137,79.275,309.046,79.093z"/>
	<path class="st0" d="M350.609,82.442c-0.639-0.41-1.151-0.934-1.538-1.572c-0.387-0.638-0.706-1.321-0.957-2.051
		c-0.25-0.729-0.455-1.492-0.615-2.29c-0.159-0.797-0.33-1.561-0.513-2.29c0-0.638,0.137-1.104,0.41-1.401
		c0.273-0.296,0.57-0.581,0.889-0.854c1.094-0.045,2.073-0.137,2.939-0.273c0.865-0.137,1.709-0.273,2.529-0.41
		s1.641-0.262,2.461-0.376c0.82-0.113,1.709-0.171,2.666-0.171c0.684-1.412,1.321-2.769,1.914-4.067
		c0.592-1.299,1.162-2.54,1.709-3.726c0.273-1.139,0.626-2.198,1.06-3.179c0.433-0.979,0.854-1.914,1.265-2.803
		s0.774-1.777,1.094-2.666c0.318-0.889,0.523-1.834,0.615-2.837c0.547-1.595,1.036-3.064,1.47-4.409
		c0.433-1.344,0.763-2.95,0.991-4.819c-1.732,0.273-3.122,0.536-4.17,0.786c-1.049,0.251-1.801,0.49-2.256,0.718
		c-0.912-0.045-1.63-0.228-2.153-0.547c-0.524-0.318-0.946-0.706-1.265-1.162c-0.319-0.455-0.593-0.979-0.82-1.572
		c-0.229-0.592-0.502-1.207-0.82-1.846c0.182-0.41,0.228-1.014,0.137-1.812c-0.092-0.797-0.365-1.378-0.82-1.743
		c0.364-0.091,0.638-0.398,0.82-0.923c0.182-0.523,0.205-0.923,0.068-1.196c0.774-0.228,1.595-0.376,2.461-0.444
		c0.865-0.068,1.72-0.137,2.563-0.205c0.843-0.068,1.651-0.159,2.427-0.273c0.774-0.113,1.436-0.353,1.982-0.718
		c2.369-0.091,4.842-0.182,7.417-0.273c2.574-0.091,4.956-0.205,7.144-0.342c0.82,0.273,1.766,0.41,2.837,0.41
		c1.07,0,2.142,0.068,3.213,0.205c1.07,0.137,2.027,0.434,2.871,0.889c0.843,0.456,1.424,1.254,1.743,2.393
		c0.684,0.092,1.196,0.273,1.538,0.547s0.558,0.604,0.649,0.991c0.091,0.388,0.125,0.82,0.103,1.299
		c-0.023,0.479-0.034,0.946-0.034,1.401c-0.729,0.547-1.652,0.991-2.769,1.333c-1.117,0.342-2.336,0.615-3.657,0.82
		c-1.322,0.205-2.7,0.342-4.136,0.41s-2.837,0.126-4.204,0.171c-0.229,1.504-0.627,3.271-1.196,5.298
		c-0.57,2.028-1.151,4.011-1.743,5.947c-0.593,1.938-1.105,3.669-1.538,5.195c-0.434,1.527-0.627,2.519-0.581,2.974
		c-0.456,1.049-0.832,1.938-1.128,2.666c-0.297,0.729-0.57,1.413-0.82,2.051c-0.251,0.639-0.502,1.265-0.752,1.88
		c-0.251,0.615-0.559,1.311-0.923,2.085h4.648c0.091,0.502,0.296,0.844,0.615,1.025c0.318,0.183,0.66,0.342,1.025,0.479
		c0.364,0.137,0.694,0.308,0.991,0.513c0.296,0.205,0.444,0.536,0.444,0.991c0.865,0.229,1.412,0.57,1.641,1.025
		c0.228,0.456,0.284,0.946,0.171,1.47c-0.114,0.524-0.342,1.06-0.684,1.606s-0.673,1.025-0.991,1.436
		c-0.41-0.091-0.798,0.012-1.162,0.308c-0.365,0.297-0.707,0.627-1.025,0.991c-1.322-0.182-2.621-0.205-3.896-0.068
		c-1.276,0.137-2.461,0.251-3.555,0.342c-0.229,0.046-0.319,0.171-0.273,0.376c0.045,0.205,0,0.354-0.137,0.444
		c-1.413-0.455-2.86-0.638-4.341-0.547c-1.481,0.092-2.985,0.308-4.512,0.649c-1.527,0.342-3.088,0.707-4.683,1.094
		C353.867,82.18,352.25,82.396,350.609,82.442z"/>
	<path class="st0" d="M386.429,50.792c0.137-0.684,0.228-1.241,0.273-1.675c0.045-0.433-0.114-0.899-0.479-1.401
		c0.182-0.729,0.33-1.299,0.444-1.709c0.113-0.41,0.125-0.979,0.034-1.709c0.41-1.185,1.036-2.188,1.88-3.008
		c0.843-0.82,1.766-1.515,2.769-2.085c1.002-0.569,2.051-1.048,3.145-1.436c1.094-0.387,2.119-0.718,3.076-0.991
		c0-0.182-0.092-0.273-0.273-0.273c-0.183,0-0.229-0.113-0.137-0.342c2.461-0.455,4.933-1.116,7.417-1.982
		c2.483-0.865,5.024-1.641,7.622-2.324s5.264-1.104,7.998-1.265c2.734-0.159,5.605,0.194,8.613,1.06
		c0.182,0.547,0.433,1.071,0.752,1.572c0.318,0.502,0.649,0.991,0.991,1.47s0.649,0.946,0.923,1.401
		c0.273,0.456,0.433,0.935,0.479,1.436c0.547,0.502,0.991,1.037,1.333,1.606c0.342,0.57,0.398,1.333,0.171,2.29
		c-0.502,0.365-1.025,0.729-1.572,1.094c-0.547,0.365-1.117,0.707-1.709,1.025c-2.051-0.501-4.102-0.684-6.152-0.547
		s-3.896,0.297-5.537,0.479c-0.502-0.547-1.094-0.809-1.777-0.786c-0.684,0.023-1.401,0.137-2.153,0.342s-1.493,0.41-2.222,0.615
		c-0.729,0.205-1.413,0.263-2.051,0.171c-0.502,0.456-1.162,0.764-1.982,0.923c-0.82,0.16-1.687,0.285-2.598,0.376
		c-0.046,0.229,0,0.388,0.137,0.479c0.137,0.092,0.159,0.273,0.068,0.547c0.318,0.41,0.752,0.695,1.299,0.854
		c0.547,0.16,1.104,0.308,1.675,0.444c0.569,0.137,1.082,0.331,1.538,0.581c0.455,0.251,0.752,0.649,0.889,1.196
		c0.82,0.046,1.526,0.263,2.119,0.649c0.592,0.388,1.094,0.854,1.504,1.401s0.706,1.128,0.889,1.743
		c0.182,0.615,0.25,1.174,0.205,1.675c0.182,0.456,0.376,0.639,0.581,0.547c0.205-0.091,0.444,0.023,0.718,0.342
		c0.182,0.684,0.604,1.401,1.265,2.153c0.66,0.752,1.173,1.562,1.538,2.427c0.091,1.367,0.171,2.598,0.239,3.691
		s-0.126,2.165-0.581,3.213c-0.775,2.006-1.892,3.806-3.35,5.4c-1.459,1.596-3.11,2.997-4.956,4.204
		c-1.846,1.208-3.794,2.256-5.845,3.145s-4.079,1.63-6.084,2.222c-0.183-0.046-0.399-0.046-0.649,0
		c-0.251,0.045-0.308-0.092-0.171-0.41c-0.41,0.364-0.878,0.592-1.401,0.684c-0.524,0.091-1.094,0.125-1.709,0.103
		c-0.615-0.023-1.23-0.058-1.846-0.103c-0.615-0.046-1.22-0.023-1.812,0.068c-0.365-0.365-0.695-0.729-0.991-1.094
		c-0.297-0.364-0.536-0.797-0.718-1.299c-0.229-0.045-0.331-0.193-0.308-0.444c0.022-0.25-0.08-0.376-0.308-0.376
		c0-0.182,0.022-0.318,0.068-0.41c0.045-0.091,0.091-0.182,0.137-0.273c0.182-0.137,0.262-0.239,0.239-0.308
		c-0.023-0.068-0.092-0.137-0.205-0.205c-0.114-0.068-0.229-0.147-0.342-0.239c-0.114-0.091-0.148-0.205-0.103-0.342
		c0.228-0.41,0.308-0.899,0.239-1.47c-0.068-0.569-0.126-1.15-0.171-1.743c-0.046-0.592,0-1.15,0.137-1.675
		c0.137-0.523,0.523-0.968,1.162-1.333c1.868,0.183,3.634,0.092,5.298-0.273c1.663-0.364,3.235-0.865,4.717-1.504
		c1.48-0.638,2.894-1.333,4.238-2.085c1.344-0.752,2.654-1.446,3.931-2.085c0.137-0.455,0.353-0.843,0.649-1.162
		c0.296-0.318,0.604-0.626,0.923-0.923c0.318-0.296,0.615-0.615,0.889-0.957s0.479-0.763,0.615-1.265
		c0.045-0.182,0.045-0.318,0-0.41c-0.046-0.091-0.114-0.171-0.205-0.239c-0.092-0.068-0.183-0.147-0.273-0.239
		c-0.092-0.091-0.137-0.228-0.137-0.41c-0.137-0.045-0.263-0.091-0.376-0.137c-0.114-0.045-0.217-0.068-0.308-0.068
		c-1.186-0.592-2.438-1.094-3.76-1.504c-1.322-0.41-2.438-0.865-3.35-1.367c-0.547,0.365-1.094,0.456-1.641,0.273
		c-0.547-0.182-1.208-0.364-1.982-0.547c-1.914-0.091-3.726-0.273-5.435-0.547s-3.361-0.752-4.956-1.436
		c-0.092-0.273-0.205-0.513-0.342-0.718s-0.456-0.262-0.957-0.171c-0.319-0.455-0.649-0.877-0.991-1.265
		C387.01,51.738,386.703,51.294,386.429,50.792z"/>
</g>
</svg>
